<?xml version="1.0" encoding="UTF-8"?>
<svg width="311px" height="70px" viewBox="0 0 311 70" version="1.1" xmlns="http://www.w3.org/2000/svg" xmlns:xlink="http://www.w3.org/1999/xlink">
    <!-- Generator: Sketch 53.2 (72643) - https://sketchapp.com -->
    <title>分组</title>
    <desc>Created with Sketch.</desc>
    <g id="页面-1" stroke="none" stroke-width="1" fill="none" fill-rule="evenodd">
        <g id="分组" transform="translate(0.000000, -0.966235)">
            <path d="M50.1446119,0.966235152 L36.6035734,0.966235152 C34.6954108,6.10140101 31.3649043,10.5896671 27,13.9082289 L27,26.8502227 L31.321608,24.2618239 L31.321608,69.9662352 L59.532105,69.9662352 C65.3172453,69.9530202 70.0000151,65.267775 70,59.4928069 L70,6.3826992 L47.8397543,6.3826992 L50.1446119,0.966235152 Z M58.4997208,53.3573432 L58.4997208,54.6036093 C58.5189774,56.1733358 57.9077599,57.6853966 56.8025416,58.8021783 C55.6973232,59.9189599 54.1901456,60.5474574 52.6175321,60.5473398 L42.6538247,60.5473398 L42.6538247,42.6442484 L58.4997208,42.6442484 L58.4997208,53.3573432 Z M57.9955332,15.8734947 L57.9955332,32.6501532 L42.6538247,32.6501532 L42.6538247,15.8734947 L57.9955332,15.8734947 Z" id="形状-copy-3" fill="#0C0C0C" fill-rule="nonzero"></path>
            <path d="M19.2755906,0.966235152 L7.93700787,0.966235152 L7.93700787,6.34347605 L0.283464567,6.34347605 L0.283464567,15.8607166 L7.93700787,15.8607166 L7.93700787,32.7300255 L0,34.9189908 L0,46.1731277 L7.93700787,43.7938176 C8.12598425,54.2627822 8.03149606,59.8779541 7.65354331,60.6393333 C6.77904024,61.1226091 5.81309825,61.4144902 4.81889764,61.495885 L2.36220472,61.495885 L2.36220472,69.9662291 L12.2834646,69.9662291 C14.3032847,69.9688939 16.228257,69.1033085 17.5748031,67.5869189 C18.725517,66.2784392 19.3342387,64.5753014 19.2755906,62.8282987 L19.2755906,40.3438179 L24,38.6307146 L24,27.5193363 L19.2755906,28.9231293 L19.2755906,15.7655442 L24,15.7655442 L24,6.24830365 L19.2755906,6.24830365 L19.2755906,0.966235152 Z" id="路径-copy-4" fill="#0C0C0C" fill-rule="nonzero"></path>
            <path d="M74,33.3706087 L78.6601942,31.6462074 L78.6601942,69.9662352 L90.7961165,69.9662352 L90.7961165,14.8811953 C91.8883495,13.2286441 92.9563107,8.60629069 94,0.966235152 L83.0291262,0.966235152 C81.9123558,7.73259786 78.7675481,14.0138928 74,19.0005983 L74,33.3706087 Z" id="路径-copy-5" fill="#0C0C0C" fill-rule="nonzero"></path>
            <path d="M97,69.9662352 L134.590074,69.9662352 C140.339318,69.9662352 145,65.2705978 145,59.4782352 L145,42.9662352 L97,42.9662352 L97,69.9662352 Z M107.362283,52.1822352 L134.16129,52.1822352 L134.16129,53.7662352 C134.16129,57.5040984 131.15371,60.5342352 127.443672,60.5342352 L107.362283,60.5342352 L107.362283,52.1822352 Z" id="形状-copy-4" fill="#0C0C0C" fill-rule="nonzero"></path>
            <path d="M247,48.9662352 L284.590074,48.9662352 C290.339318,48.9662352 295,44.6184227 295,39.255124 L295,23.9662352 L247,23.9662352 L247,48.9662352 Z M257,37.9662352 L284,37.9662352 L283.999768,39.3714012 C283.999768,41.1615656 282.528937,41.9662352 280.255181,41.9662352 L257,41.9662352 L257,37.9662352 Z M257,29.9662352 L284,29.9662352 L284,33.9662352 L257,33.9662352 L257,29.9662352 Z" id="形状-copy-4-copy" fill="#0C0C0C" fill-rule="nonzero"></path>
            <polygon id="路径-copy-6" fill="#0C0C0C" fill-rule="nonzero" points="126.419355 1.96623515 114.437221 1.96623515 114.437221 5.64014819 97 5.64014819 97 14.9662352 145 14.9662352 145 5.64014819 126.419355 5.64014819"></polygon>
            <polygon id="路径-copy-7" fill="#0C0C0C" fill-rule="nonzero" points="277.548386 0.966235152 263.069974 0.966235152 263.069974 3.7923221 242 3.7923221 242 10.9662352 300 10.9662352 300 3.7923221 277.548386 3.7923221"></polygon>
            <rect id="矩形-copy-3" fill="#0C0C0C" fill-rule="nonzero" x="96" y="17.9662352" width="48" height="9"></rect>
            <rect id="矩形-copy-4" fill="#0C0C0C" fill-rule="nonzero" x="96" y="29.9662352" width="48" height="9"></rect>
            <rect id="矩形-copy-15" fill="#0C0C0C" fill-rule="nonzero" x="158" y="24.9662352" width="34" height="9"></rect>
            <path d="M240.646981,49.9662352 L250,52.0374025 C248.179993,58.1758307 245.647809,63.4595411 242.403449,67.9662352 L234,63.0978094 C237.16523,58.9796234 239.380889,54.6283326 240.646981,49.9662352 Z" id="路径-copy-11" fill="#000000" fill-rule="nonzero"></path>
            <path d="M169.878308,0.966235152 L182.5,0.966235152 C178.897198,12.6482221 164.760249,37.9662352 152,37.9662352 L152,26.5511384 C160.083391,22.4501062 167.372011,9.83863024 169.878308,0.966235152 Z" id="路径-copy-16" fill="#000000" fill-rule="nonzero"></path>
            <path d="M284.609102,69.9662352 L261.382826,69.9662352 C255.101761,69.9662352 252,65.8240201 252,60.5446041 L252,50.9662352 L263.10937,50.9662352 L263.10937,57.8099389 C263.10937,59.6200244 264.27253,60.6004873 266.598851,60.6004873 L279.424618,60.6004873 C280.742867,60.6004873 281.673395,60.2988064 282.216203,59.6954446 C282.991643,59.0920828 283.456907,58.2065771 283.689539,55.1143477 L295,57.6032152 C294.379648,62.8826312 292.749379,69.9662352 284.609102,69.9662352 Z" id="路径-copy-12" fill="#000000" fill-rule="nonzero"></path>
            <path d="M301.317375,46.9662352 C305.500269,52.0215957 308.753631,56.3769832 311,60.1101725 L301.450242,65.9662352 C299.126412,61.844172 295.950511,57.2554602 292,52.2000996 L301.317375,46.9662352 Z" id="路径-copy-10" fill="#0C0C0C" fill-rule="nonzero"></path>
            <path d="M275.310881,47.9662352 C279.367876,52.7747899 279.821243,52.9227454 282,56.4736781 L273.310881,59.9662352 C271.056995,56.0454137 270.831607,56.6956114 267,51.8870567 L275.310881,47.9662352 Z" id="路径-copy-14" fill="#0C0C0C" fill-rule="nonzero"></path>
            <rect id="矩形" fill="#000000" fill-rule="nonzero" x="235" y="14.9662352" width="72" height="7"></rect>
            <rect id="矩形-copy-13" fill="#000000" fill-rule="nonzero" x="252" y="7.96623515" width="12" height="12"></rect>
            <rect id="矩形-copy-14" fill="#000000" fill-rule="nonzero" x="278" y="7.96623515" width="12" height="12"></rect>
            <path d="M216.196412,1.96623515 L228,1.96623515 L228,59.9874671 C228.397967,66.727215 225.155987,70.097089 218.27406,70.097089 L208,70.097089 L208,59.9874671 C212.526753,59.9874671 216.196412,56.2678489 216.196412,51.6794671 L216.196412,50.9309304 L216.196412,1.96623515 Z" id="矩形" fill="#000000" fill-rule="nonzero"></path>
            <path d="M193.007586,30.9662352 L204,30.9662352 L204,59.8151911 L203.325066,62.6716973 C202.31492,66.9469146 198.50417,69.9662352 194.118471,69.9662352 L171.239966,69.9662352 C165.897184,69.9662352 162.483861,66.320597 161,59.0293205 L169.271987,54.7034067 C170.443455,58.4221843 173.886756,60.0167252 177.779516,60.0167252 C181.298262,60.0167252 189.335754,60.0167252 189.335754,60.0167252 C191.363651,60.0167252 193.007586,58.3699262 193.007586,56.3384964 L193.007586,55.0547491 L193.007586,30.9662352 Z" id="矩形-copy-16" fill="#000000" fill-rule="nonzero" transform="translate(182.500000, 50.466235) scale(-1, 1) translate(-182.500000, -50.466235) "></path>
            <rect id="矩形" fill="#000000" fill-rule="nonzero" x="202" y="12.9662352" width="10" height="38"></rect>
            <path d="M182.367654,31.9662352 L192,31.9662352 L192,46.1172763 L192,46.4014488 C192,50.0270801 188.966683,52.9662352 185.224897,52.9662352 L177,52.9662352 L177,46.1172763 L180.367654,46.1172763 C181.472224,46.1172763 182.367654,45.2218458 182.367654,44.1172763 L182.367654,31.9662352 Z" id="矩形-copy-18" fill="#000000" fill-rule="nonzero"></path>
            <polygon id="矩形-copy-5" fill="#000000" fill-rule="nonzero" transform="translate(187.273507, 16.767742) rotate(-45.000000) translate(-187.273507, -16.767742) " points="182.441248 5.68434189e-14 192.015442 0.02580645 192.105765 33.5354839 182.531571 33.5096775"></polygon>
            <rect id="矩形" fill="#000000" x="254" y="32.9662352" width="34" height="6" rx="1"></rect>
        </g>
    </g>
</svg>