<?xml version="1.0" encoding="utf-8"?>
<!-- Generator: Adobe Illustrator 21.0.0, SVG Export Plug-In . SVG Version: 6.00 Build 0)  -->
<svg version="1.1" id="图层_1" xmlns="http://www.w3.org/2000/svg" xmlns:xlink="http://www.w3.org/1999/xlink" x="0px" y="0px"
	 viewBox="0 0 21 21" style="enable-background:new 0 0 21 21;" xml:space="preserve">
<style type="text/css">
	.st0{fill:#D1D1D1;}
</style>
<path class="st0" d="M12.5,10.5l5.1-5.1c0.6-0.6,0.6-1.5,0-2s-1.5-0.6-2,0l-5.1,5.1L5.4,3.4c-0.6-0.6-1.5-0.6-2,0l0,0
	c-0.6,0.6-0.6,1.5,0,2l0,0l5.1,5.1l-5,5.1c-0.6,0.6-0.6,1.5,0,2s1.5,0.6,2,0l0,0l5.1-5.1l5.1,5.1c0.6,0.5,1.5,0.5,2-0.1
	c0.5-0.5,0.5-1.4,0-1.9L12.5,10.5z"/>
</svg>
