<?xml version="1.0" encoding="UTF-8"?>
<svg width="42px" height="42px" viewBox="0 0 42 42" version="1.1" xmlns="http://www.w3.org/2000/svg" xmlns:xlink="http://www.w3.org/1999/xlink">
    <!-- Generator: Sketch 59 (86127) - https://sketch.com -->
    <title>banben</title>
    <desc>Created with Sketch.</desc>
    <g id="页面-1" stroke="none" stroke-width="1" fill="none" fill-rule="evenodd">
        <g id="字体备份" transform="translate(-1764.000000, -1553.000000)" fill="#000000" fill-rule="nonzero">
            <g id="banben" transform="translate(1764.000000, 1553.000000)">
                <path d="M0.0112,0 L2.996,0 C8.1984,0.0336022401 11.7992,0.420028002 13.9272,1.21808121 C16.8756,2.32415494 19.7344,4.18067871 22.4952,6.7680512 L23.324,7.56610441 L24.0884,8.35855724 L24.836,9.17061137 L25.6396,10.0890726 L26.5636,11.1867458 L35.91,10.7891193 L42,23.9499967 L35.4536,25.3584906 C37.0916,27.6238416 38.346,31.2248817 39.3512,36.2512167 L39.5472,37.2760851 L40.0652,40.0482699 L37.2764,39.6226415 L36.2376,39.4546303 C31.4776,38.6621775 27.9804,37.5813054 25.6984,36.1224082 L25.228,35.8031869 L24.5112,39.4994333 L24.0184,42 L10.8164,35.8787919 L11.214,26.5317688 L9.7468,25.2828855 C8.9124,24.554837 8.3076,23.9947997 7.6076,23.3087539 C4.4436,20.130542 2.2876,17.0335356 1.1312,13.9701313 C0.5096,12.3264218 0.1596,9.64384292 0.0448,5.82998867 L0.0196,4.93112874 L0,3.01020068 L0.0112,0 L2.996,0 L0.0112,0 Z M4.0152,4.01826788 L4.0488,5.66477765 C4.1524,9.06700447 4.4408,11.3911594 4.8804,12.5532369 C5.7372,14.8297887 7.3556,17.2379492 9.758,19.7721181 L10.43,20.4665644 L11.2924,21.2898193 L11.9,21.8414561 L13.006,22.7991199 L15.302,24.7228482 L14.9324,33.3698247 L21.0756,36.2204147 L22.036,31.3424895 C23.3072,27.4866324 25.956,24.4988333 29.386,22.8663244 L30.0384,22.5779052 L30.8448,22.2698847 L36.2628,21.0938063 L33.3984,14.9053937 L24.7464,15.2722181 L23.6348,13.9281285 C23.0237053,13.1870506 22.3982536,12.4579307 21.7588,11.7411827 L21.126,11.055137 L20.482,10.3914928 C17.8612,7.78171878 15.1956,5.97279819 12.5216,4.97313154 C11.1664,4.46349757 8.5736,4.13867591 4.8356,4.03786919 L4.018,4.02106807 L4.0152,4.01826788 Z M31.808,27.2038136 L31.0912,26.4925662 C29.1670015,27.4102485 27.5857863,28.9179965 26.5776,30.7964531 L26.2948,31.3704914 L27.0144,32.0873392 L27.2664,32.3197547 C28.3696,33.2466164 30.4388,34.1006734 33.4404,34.8119208 L34.2076,34.9911327 L35.0196,35.1591439 L34.8264,34.3694913 C33.9948,31.0232682 33.0428,28.7131142 32.0404,27.4726315 L31.808,27.2066138 L31.0912,26.4925662 L31.808,27.2066138 L31.808,27.2038136 Z M10.7016,8.744983 C11.284,8.744983 11.788,8.94939663 12.2024,9.35542369 C12.6064298,9.73343144 12.8330095,10.2638463 12.8268,10.8171211 C12.8355559,11.3717125 12.6086199,11.9039792 12.2024,12.2816188 C11.805715,12.680375 11.2639783,12.9007229 10.7016,12.8920595 C10.1398217,12.9019143 9.59850295,12.6813248 9.2036,12.2816188 C8.79781271,11.903444 8.57012313,11.3717941 8.5764,10.8171211 C8.56916083,10.2630697 8.79707628,9.73190988 9.2036,9.35542369 C9.59960631,8.95737172 10.1401885,8.73708241 10.7016,8.744983 L10.7016,8.744983 Z" id="形状"></path>
            </g>
        </g>
    </g>
</svg>