<?xml version="1.0" encoding="UTF-8"?>
<svg width="118px" height="29px" viewBox="0 0 118 29" version="1.1" xmlns="http://www.w3.org/2000/svg" xmlns:xlink="http://www.w3.org/1999/xlink">
    <!-- Generator: Sketch 59 (86127) - https://sketch.com -->
    <title>任意下载</title>
    <desc>Created with Sketch.</desc>
    <g id="页面-1" stroke="none" stroke-width="1" fill="none" fill-rule="evenodd">
        <g id="字体备份" transform="translate(-1726.000000, -1609.000000)" fill="#000000" fill-rule="nonzero">
            <path d="M1751.27523,1631.19594 L1750.81113,1631.29182 C1750.11497,1631.4273 1749.15692,1631.58949 1748.50699,1631.73259 C1747.99547,1631.94129 1745.40776,1632.20962 1744.89624,1631.94129 C1744.7157,1628.72137 1745.13696,1626.57475 1745.10687,1623.44427 L1745.47195,1623.43763 C1747.20239,1623.38296 1750.75081,1623.029 1751.75666,1623.83185 L1751.96609,1623.8141 C1752.15823,1623.7932 1752.19463,1623.76228 1752.35845,1623.62315 C1752.41863,1621.92374 1751.78675,1620.25415 1750.52299,1620.04545 C1749.0486,1620.22434 1746.31045,1620.76099 1744.98651,1620.93988 L1744.94862,1618.74136 C1744.91964,1617.25286 1744.88621,1615.74228 1744.86615,1614.35095 L1745.23113,1614.33731 C1746.43223,1614.26919 1749.49531,1613.95878 1749.9212,1613.69504 C1750.43272,1613.63542 1750.40263,1613.51616 1750.70353,1613.33727 C1750.67344,1612.14471 1748.41672,1609.90865 1747.54412,1609.72976 C1746.09982,1611.36954 1744.144,1611.84657 1742.03773,1612.91988 C1741.10496,1613.30746 1736.98269,1614.05281 1735.05696,1614.70872 L1735.59992,1614.85085 C1737.28569,1615.27132 1739.47109,1615.61209 1741.82711,1615.15594 L1741.84483,1615.22338 C1741.93797,1615.67347 1741.8572,1617.14381 1741.8572,1621.14858 C1741.58639,1621.86412 1740.59343,1621.71505 1739.90137,1621.92374 C1738.30663,1622.37096 1736.17027,1622.37096 1734.33481,1622.37096 C1734.87642,1623.80203 1735.65875,1625.29274 1736.74197,1625.47163 C1737.46412,1625.17348 1740.02173,1623.74241 1741.46603,1624.21943 L1741.76693,1624.3685 L1741.78386,1624.52607 C1741.88413,1625.80338 1741.85268,1632.19173 1741.76693,1632.41832 C1741.43594,1632.98479 1736.23045,1634.32642 1735.11714,1633.55126 L1734.12418,1633.55126 C1734.57552,1634.80345 1736.04991,1636.44323 1736.92251,1636.44323 C1741.91738,1637.06932 1746.49099,1632.83572 1753.05051,1636.29416 L1753.59212,1635.63825 C1753.59212,1634.17735 1752.38854,1630.98724 1751.27523,1631.19594 Z M1726,1624.51757 C1727.20358,1623.86166 1728.5877,1622.49021 1729.7311,1621.05913 C1730.12227,1624.42813 1730.15236,1630.12263 1729.76119,1633.93884 C1729.67093,1634.65438 1729.40012,1635.13141 1729.40012,1635.93639 C1730.032,1636.68174 1731.35594,1637.18858 1731.98782,1637.75505 C1732.91365,1637.75505 1733.2831,1635.9082 1733.1229,1634.67945 L1733.10114,1634.53512 C1732.83033,1632.89535 1732.89051,1620.49267 1733.34185,1619.68768 C1733.46221,1618.64419 1732.77015,1618.61438 1731.86746,1618.52493 C1732.89051,1617.51125 1734.15427,1615.27519 1734.72597,1613.72486 L1734.93744,1613.55135 C1735.3902,1613.15481 1736.06797,1612.39962 1735.65875,1611.81675 C1735.53839,1610.8627 1732.46925,1609.75958 1730.81433,1609.75958 C1730.99487,1610.38568 1731.32585,1610.47512 1731.32585,1611.2801 C1731.32585,1612.71118 1730.78424,1614.70872 1729.67093,1617.54107 L1726,1624.51757 Z M1743.18114,1616.88516 L1743.18114,1616.94478 C1742.91033,1616.67646 1743.03069,1615.60315 1742.85015,1615.24538 L1742.88334,1615.05292 C1742.91627,1614.8946 1742.93708,1614.93067 1743.03069,1614.76835 L1743.30149,1614.76835 L1743.42185,1614.97705 L1743.41704,1615.19839 C1743.4026,1615.64489 1743.34964,1616.59894 1743.18114,1616.88516 Z M1738.24645,1623.74241 L1738.00685,1623.77553 C1737.8486,1623.79541 1737.69481,1623.80203 1737.55439,1623.74241 L1737.44947,1623.68938 C1737.39596,1623.66027 1737.40824,1623.65722 1737.34376,1623.59334 L1737.29111,1623.59427 C1737.25161,1623.59147 1737.24597,1623.56352 1737.2234,1623.38464 L1737.66834,1623.20697 C1737.75151,1623.17229 1737.8252,1623.13761 1737.91546,1623.0865 C1738.15618,1623.14612 1738.15618,1623.17594 1738.36681,1623.26538 C1738.33672,1623.41445 1738.27654,1623.56352 1738.24645,1623.74241 Z M1750.97433,1633.90903 C1750.91415,1633.99847 1750.94424,1633.90903 1750.7637,1633.99847 L1750.59445,1633.83449 C1750.53051,1633.77486 1750.46281,1633.71523 1750.40263,1633.67051 C1750.40263,1633.55126 1750.46281,1633.40219 1750.4929,1633.2233 L1750.62817,1633.24434 C1750.70844,1633.26042 1750.72072,1633.27867 1750.7637,1633.34256 L1750.92544,1633.42082 C1750.97433,1633.44691 1751.01947,1633.47672 1751.0646,1633.52144 L1751.03716,1633.69222 C1751.02488,1633.76234 1751.01044,1633.81958 1750.97433,1633.90903 Z M1741.31558,1634.2668 C1741.07487,1634.56494 1740.77397,1634.44568 1740.32263,1634.62456 C1739.90137,1634.77364 1739.63057,1635.25066 1739.29958,1635.39973 C1738.9686,1635.5488 1738.63761,1635.39973 1738.42699,1635.5488 C1737.97564,1635.45936 1737.97564,1635.39973 1737.70484,1635.22085 L1737.70484,1634.80345 C1739.17923,1634.74382 1739.93146,1633.8494 1741.31558,1633.96865 L1741.43594,1634.02828 C1741.34567,1634.20717 1741.40585,1634.17735 1741.31558,1634.2668 Z M1782.65863,1616.02055 C1781.12407,1616.1398 1779.77004,1616.10999 1778.35583,1616.28887 C1777.21242,1616.3485 1776.94162,1616.61683 1775.88848,1616.67646 L1775.3971,1616.70264 C1773.81802,1616.76984 1772.83576,1616.64664 1772.69899,1616.64664 C1773.87248,1616.22925 1775.16633,1616.10999 1776.03893,1615.51371 L1776.35582,1615.16571 C1776.78262,1614.67609 1776.37918,1614.88761 1775.43714,1613.90374 L1776.65183,1613.98783 C1777.91713,1614.08294 1779.61332,1614.24661 1779.8904,1614.50003 C1780.37183,1614.4404 1780.4621,1614.29133 1780.82317,1614.17207 C1780.85326,1612.41304 1779.8904,1611.9062 1779.04789,1611.0714 C1777.36287,1611.13103 1772.24765,1612.41304 1770.6529,1611.75713 C1771.07416,1611.42917 1772.03702,1610.20679 1771.70604,1609.78939 C1769.90066,1609.10367 1768.0652,1608.80553 1766.68108,1609.13348 C1767.01207,1609.58069 1767.4935,1609.84902 1767.88466,1610.29623 C1768.30592,1610.74344 1768.54663,1611.36954 1769.02807,1611.78694 C1768.6369,1612.17452 1767.13242,1612.05527 1766.44036,1612.20434 L1765.78658,1612.2013 C1762.52425,1612.1977 1759.41069,1612.34968 1758.67726,1611.84657 C1758.73744,1612.38322 1759.7003,1614.20188 1760.30209,1614.41058 C1760.90389,1614.6491 1763.58186,1614.41058 1764.0332,1614.6491 C1764.51463,1615.60315 1765.1766,1616.10999 1765.59786,1616.79571 L1765.01718,1616.81497 C1762.39393,1616.92288 1758.46233,1617.30255 1756.45063,1616.1398 C1755.78866,1616.46776 1756.69135,1618.97215 1757.65421,1619.9262 C1759.30914,1619.95601 1761.23487,1619.47899 1762.82962,1619.3001 C1766.77135,1619.12122 1770.74317,1618.85289 1774.74508,1618.73363 C1777.18234,1618.82307 1779.67977,1618.97215 1782.20729,1619.03177 L1782.51368,1619.11574 C1784.71818,1619.68955 1784.81932,1618.98927 1782.65863,1616.02055 Z M1769.11833,1609.78939 L1769.35905,1609.78939 L1769.35905,1609.96828 L1769.11833,1609.96828 L1769.11833,1609.78939 Z M1770.35201,1616.82553 L1767.67404,1616.79571 L1767.77341,1616.43627 C1767.96731,1615.72598 1768.00903,1615.42625 1767.64395,1614.85779 C1767.85457,1614.85779 1765.65804,1614.50003 1765.20669,1614.41058 L1769.76385,1613.99709 C1771.76669,1613.82501 1772.86448,1613.76213 1772.93971,1613.87393 C1772.57863,1614.61928 1770.86353,1616.37832 1770.35201,1616.82553 Z M1765.26311,1615.26401 L1765.30824,1615.26401 C1765.32705,1615.27519 1765.34209,1615.2901 1765.38723,1615.33482 L1765.27457,1615.2735 C1765.26946,1615.26984 1765.26593,1615.26681 1765.26311,1615.26401 L1765.30824,1615.26401 L1765.26311,1615.26401 Z M1768.3661,1627.85676 C1770.6529,1627.58843 1773.09016,1627.64806 1774.86544,1627.49899 C1775.31678,1628.03564 1776.18938,1628.18471 1776.55045,1628.66174 C1777.21242,1628.66174 1778.35583,1628.06546 1778.89744,1627.23066 C1779.19834,1626.75363 1779.40896,1622.8778 1779.8904,1621.53616 C1779.73995,1620.93988 1779.64968,1620.67155 1779.22842,1620.40322 C1778.47619,1619.9262 1778.1452,1619.44917 1776.85135,1619.44917 C1774.65481,1620.67155 1770.53254,1620.16471 1767.73421,1620.64174 L1762.19774,1620.79081 C1760.96406,1620.37341 1761.50568,1620.19452 1759.88084,1620.43304 C1760.09147,1621.26783 1760.96406,1622.6691 1760.5729,1623.98092 L1760.48739,1624.30049 C1760.27718,1625.13202 1760.02377,1626.51139 1760.39236,1627.3201 L1760.46348,1627.39157 C1760.8412,1627.74495 1762.44096,1629.02945 1763.13051,1628.81081 C1763.43141,1628.75118 1763.43141,1628.27415 1763.79248,1628.12508 L1764.68059,1628.06639 C1765.86678,1627.99651 1767.73421,1627.90148 1768.3661,1627.85676 Z M1775.40705,1622.2517 L1775.45832,1622.45377 C1775.48729,1622.57303 1775.50735,1622.67904 1775.52741,1622.8778 C1772.30783,1622.8778 1767.46341,1623.26538 1764.24383,1623.53371 L1764.1686,1623.16848 C1764.14603,1623.07159 1764.12347,1622.98215 1764.09338,1622.84798 C1764.99606,1622.54984 1774.29374,1621.98337 1775.40705,1622.2517 Z M1775.19642,1625.94865 C1774.80526,1625.65051 1764.6049,1626.15735 1764.69517,1626.48531 L1764.59166,1626.29664 C1764.44242,1626.01424 1764.27392,1625.63262 1764.39427,1625.44181 L1764.75546,1625.41901 C1766.50201,1625.29089 1769.16247,1624.87534 1775.2566,1624.87534 C1775.19642,1625.17348 1775.31678,1625.8294 1775.19642,1625.94865 Z M1767.85457,1628.30397 C1768.57672,1630.063 1770.35201,1631.04687 1771.5255,1632.44813 C1773.45123,1632.44813 1773.51141,1629.8543 1772.21756,1628.48285 C1770.92371,1628.33378 1769.53959,1628.21453 1767.85457,1628.30397 Z M1774.59463,1634.14754 L1773.98359,1634.21861 C1768.80865,1634.76071 1766.72566,1633.36243 1763.97302,1628.45304 C1762.19774,1635.81713 1768.69708,1639.36501 1778.53637,1637.09914 L1778.90872,1636.68174 C1779.03284,1636.54012 1779.1532,1636.39851 1779.25851,1636.26434 L1779.24869,1635.88415 C1779.21185,1635.23849 1778.93183,1635.01215 1775.88848,1630.36114 C1775.88848,1631.28538 1774.77517,1633.6407 1774.59463,1634.14754 Z M1778.05493,1629.16858 L1778.79837,1630.89999 C1779.58904,1632.7157 1780.08383,1633.58746 1781.78604,1635.25066 C1782.53828,1635.25066 1783.89231,1632.29906 1783.23034,1631.46427 C1782.83917,1630.83817 1778.98771,1628.78099 1778.05493,1629.16858 Z M1756.66126,1633.58107 C1756.5409,1635.13141 1757.44359,1636.3836 1758.16574,1636.92025 C1760.96406,1635.5488 1762.43845,1631.97111 1761.86675,1629.55616 C1760.0012,1631.5239 1758.46663,1632.17981 1756.66126,1633.58107 Z M1759.97111,1634.02828 L1759.85075,1634.02828 C1759.82066,1634.02828 1759.7003,1634.02828 1759.67021,1633.96865 C1759.61003,1633.58107 1759.67021,1633.58107 1759.73039,1633.37237 L1760.09147,1633.28293 C1760.18174,1633.37237 1760.24192,1633.34256 1760.24192,1633.37237 C1760.24192,1633.70033 1760.09147,1633.73014 1759.97111,1634.02828 Z M1811.90568,1610.02791 C1811.003,1610.05772 1810.52156,1610.50493 1809.79941,1610.68382 L1797.89702,1611.53676 C1794.57428,1611.76612 1791.73434,1611.95361 1791.20407,1611.96582 C1790.21111,1612.20434 1786.99153,1611.0714 1786.48001,1611.0714 C1786.63046,1612.77081 1788.13493,1614.4404 1789.15798,1615.33482 C1790.21111,1615.27519 1790.99344,1614.97705 1791.71559,1614.6491 C1792.28729,1614.47021 1794.24311,1614.26151 1796.71046,1614.08263 L1796.78225,1614.74136 C1797.07351,1617.59033 1797.56598,1624.3129 1797.37243,1627.7375 C1797.1618,1628.95988 1796.98126,1634.23698 1796.98126,1635.39973 C1798.87691,1636.26434 1801.40443,1640.49795 1801.70532,1635.87676 C1802.3372,1632.83572 1801.04335,1628.21453 1801.37434,1618.61438 C1801.37434,1617.1833 1802.0664,1613.75467 1801.28407,1613.90374 L1800.65219,1613.84411 L1802.08468,1613.7684 C1805.76842,1613.58905 1809.22083,1613.54001 1810.10031,1613.72486 L1811.02177,1614.11316 C1811.6096,1614.36646 1812.26676,1614.66698 1812.4473,1614.82798 C1813.31989,1614.82798 1813.34998,1614.52984 1813.77124,1614.11244 C1813.71106,1612.50248 1812.56765,1611.10121 1811.90568,1610.02791 Z M1801.94604,1618.25661 L1806.61907,1624.27143 C1808.01571,1626.0846 1809.19762,1627.64209 1809.2578,1627.79713 C1811.94525,1629.14318 1811.6182,1623.51024 1811.26378,1622.23 L1811.24371,1622.16226 C1811.18353,1621.50635 1802.21685,1617.83921 1801.94604,1618.25661 Z M1806.82055,1620.73118 L1805.82759,1620.70136 L1806.30903,1620.31378 L1806.82055,1620.31378 L1806.82055,1620.73118 Z M1843.259,1630.92761 L1843.14334,1630.41658 C1843.04461,1629.96238 1842.98819,1629.63815 1842.89793,1629.07914 C1842.3864,1629.61579 1841.69434,1632.00092 1840.88193,1632.50776 C1839.88897,1632.14999 1838.89602,1630.77854 1838.17387,1629.13876 C1838.37991,1629.40126 1843.02047,1623.44379 1843.05312,1622.62641 L1843.04837,1622.57966 C1842.98819,1621.38709 1840.46067,1619.83676 1839.01637,1619.83676 L1839.0041,1620.02184 C1838.99832,1620.21361 1839.04646,1620.21838 1839.28718,1620.43304 C1839.43763,1622.34114 1837.45172,1625.94865 1836.81984,1627.08159 C1836.30831,1626.48531 1835.13482,1621.17839 1835.16491,1619.32991 L1835.40253,1619.32078 C1836.84973,1619.29438 1843.22891,1619.44917 1843.22891,1619.44917 C1844.67321,1618.8827 1842.44658,1616.94478 1841.69434,1616.08017 C1837.93315,1616.19943 1839.10664,1616.5572 1835.07464,1616.64664 L1835.07654,1615.90961 C1835.09107,1613.99707 1835.21699,1611.92569 1836.30831,1611.16084 C1835.58616,1609.37199 1832.78784,1609.34218 1832.27631,1609.99809 L1832.33144,1610.4174 C1832.4075,1610.92114 1832.49898,1611.22643 1832.66748,1611.60805 L1832.57345,1614.14598 C1832.51703,1615.43172 1832.44181,1616.75099 1832.36658,1616.88516 C1831.43381,1617.48144 1830.17004,1617.33237 1825.86724,1617.69014 C1826.2584,1617.15348 1825.86724,1616.1398 1826.10795,1615.42426 L1826.31175,1615.36354 C1826.5811,1615.28645 1826.95261,1615.20279 1827.73279,1615.15594 L1829.17623,1615.17217 C1830.70306,1615.17982 1831.38867,1615.11122 1831.55416,1614.61928 C1831.40372,1613.75467 1830.20013,1612.83043 1830.04969,1612.50248 C1830.04969,1612.47266 1826.19822,1612.71118 1826.19822,1612.68136 C1826.34867,1611.4888 1826.61948,1611.42917 1826.73983,1610.32605 C1826.37876,1609.81921 1823.9716,1609.67014 1822.82819,1610.05772 L1823.04143,1610.461 C1823.11573,1610.61043 1823.20547,1610.80307 1823.39989,1611.22047 C1823.64061,1611.60805 1823.73088,1612.80062 1823.42998,1613.36709 C1822.73792,1613.93356 1819.00682,1613.72486 1818.07404,1613.48634 C1818.4953,1615.12612 1818.85637,1615.69259 1819.60861,1616.19943 C1820.15022,1616.3485 1822.7981,1616.10999 1823.30962,1615.7224 L1823.36427,1616.16438 C1823.47159,1617.18256 1823.29625,1617.01766 1823.42998,1618.07772 L1822.26375,1618.26691 C1820.33565,1618.57497 1817.9466,1618.89849 1816.08813,1618.55475 C1816.14831,1620.40322 1817.95368,1621.38709 1818.79619,1621.08895 C1818.67583,1621.08895 1820.75201,1620.79081 1823.27954,1620.46285 C1823.00873,1621.14858 1822.82819,1622.19207 1822.67774,1622.57966 C1821.92551,1622.90761 1818.43512,1623.23557 1817.38198,1622.99705 C1817.20144,1623.32501 1818.25458,1625.05423 1818.34485,1625.412 C1818.58556,1625.29274 1820.90246,1625.02441 1821.92551,1624.66664 L1821.75834,1625.01655 C1821.21878,1626.10937 1820.15181,1627.98229 1819.39798,1628.54248 L1819.0543,1628.79078 C1818.76234,1629.0046 1818.59309,1629.13876 1818.25458,1629.40709 C1818.58556,1630.00337 1818.91655,1630.15244 1819.15727,1630.74873 C1820.45112,1630.92761 1821.77506,1629.8543 1824.72383,1630.00337 L1824.69374,1631.82204 C1823.15918,1632.17981 1819.6387,1633.31274 1818.82628,1633.28293 C1818.01386,1633.75995 1819.6387,1635.13141 1820.09004,1635.84694 C1820.60156,1635.84694 1823.85124,1634.86308 1824.60348,1634.47549 C1824.48312,1634.83326 1824.21231,1635.93639 1824.45303,1636.29416 C1824.84419,1637.03951 1825.53625,1637.24821 1826.07786,1637.81468 C1826.46903,1637.81468 1826.98055,1636.92025 1827.16109,1636.74137 C1827.49207,1636.32397 1827.4018,1634.86308 1827.10091,1633.34256 C1827.28145,1633.67051 1831.7347,1631.40464 1832.0356,1630.77854 C1830.80192,1630.80836 1828.72575,1631.04687 1827.22127,1631.34501 L1827.28145,1629.49653 C1827.97351,1629.22821 1831.01255,1629.28784 1832.21613,1629.19839 L1832.32615,1629.10243 C1832.4136,1629.01578 1832.44181,1628.93752 1832.48694,1628.69155 C1832.57721,1628.45304 1831.04264,1626.99215 1831.10282,1626.81326 C1830.07978,1627.23066 1827.67261,1627.61824 1827.28145,1627.5288 C1827.28145,1627.17103 1827.52216,1626.27661 1827.46198,1626.12754 C1827.4018,1624.75609 1826.04777,1625.23311 1824.93446,1625.17348 C1824.69374,1625.56107 1824.90437,1626.63438 1824.60348,1626.96233 L1824.60065,1627.38672 C1824.59219,1627.78781 1824.55834,1628.11763 1824.42294,1628.3636 C1823.88133,1628.33378 1823.03882,1628.42323 1822.67774,1628.33378 L1822.94454,1627.87565 C1823.29222,1627.24806 1823.62411,1626.53916 1824.93446,1624.27906 L1825.31624,1624.26988 C1826.82138,1624.21675 1831.31946,1623.95111 1832.18604,1623.95111 L1832.03487,1623.51875 C1831.75963,1622.74372 1831.48936,1622.08199 1831.13291,1621.80449 C1830.32049,1621.44672 1826.70974,1622.16226 1826.01768,1622.34114 C1826.2584,1621.68523 1826.34867,1621.71505 1826.46903,1621.08895 C1825.65661,1620.67155 1824.99464,1620.43304 1824.48312,1620.31378 L1828.95603,1619.7252 C1830.95474,1619.4702 1832.45112,1619.29442 1832.48694,1619.32991 C1832.6073,1621.50635 1833.87106,1627.85676 1834.86401,1629.01951 C1834.08169,1631.16613 1829.92933,1635.45936 1828.75583,1636.20471 C1829.83906,1636.29416 1833.72061,1634.83326 1836.30831,1631.70278 C1837.63225,1634.20717 1841.72443,1637.30784 1843.259,1636.53267 C1844.61303,1635.9662 1843.80061,1633.04442 1843.259,1630.92761 Z M1841.51381,1612.80062 C1841.18282,1612.05527 1838.26413,1611.16084 1837.24109,1611.22047 C1837.7827,1612.86025 1839.07655,1613.75467 1839.55799,1614.88761 C1841.12264,1615.27519 1841.30318,1614.17207 1841.51381,1612.80062 Z M1820.30067,1615.03668 L1820.12013,1615.03668 C1820.02986,1614.85779 1819.93959,1614.70872 1819.81924,1614.55965 C1819.99977,1614.67891 1820.15022,1614.79817 1820.30067,1614.88761 L1820.30067,1615.03668 Z M1839.97924,1621.86412 L1839.97924,1622.07281 L1839.88897,1622.07281 C1839.88897,1621.98337 1839.85888,1621.8343 1839.7987,1621.71505 C1839.88897,1621.77467 1839.91906,1621.8343 1839.97924,1621.86412 Z M1842.3864,1635.16122 C1841.63416,1635.10159 1840.61112,1634.74382 1840.18987,1634.29661 C1840.91202,1634.56494 1841.69434,1634.80345 1842.3864,1635.07178 L1842.3864,1635.16122 Z" id="任意下载"></path>
        </g>
    </g>
</svg>