<?xml version="1.0" encoding="UTF-8"?>
<svg width="117px" height="30px" viewBox="0 0 117 30" version="1.1" xmlns="http://www.w3.org/2000/svg" xmlns:xlink="http://www.w3.org/1999/xlink">
    <!-- Generator: Sketch 59 (86127) - https://sketch.com -->
    <title>全站商用</title>
    <desc>Created with Sketch.</desc>
    <g id="页面-1" stroke="none" stroke-width="1" fill="none" fill-rule="evenodd">
        <g id="字体备份" transform="translate(-1424.000000, -1609.000000)" fill="#000000" fill-rule="nonzero">
            <path d="M1449.89295,1623.95459 C1451.69943,1621.80525 1452.84354,1621.32089 1453.32527,1620.07972 L1450.69109,1619.1798 C1448.42334,1618.39282 1446.69626,1617.70794 1444.80468,1616.4773 C1442.87777,1615.23613 1441.40247,1613.93441 1440.16804,1612.81433 L1438.9035,1612.02725 C1439.23469,1610.90716 1436.82604,1610.12008 1434.83891,1610.15035 C1434.74858,1610.87689 1434.71848,1611.54289 1434.65826,1612.20888 L1434.44592,1612.70039 C1432.67055,1616.70353 1430.68747,1618.45898 1424,1623.34914 C1426.67962,1623.77296 1434.77869,1619.56509 1438.21101,1614.6004 C1440.49923,1617.29465 1442.36593,1619.20182 1443.90144,1620.5338 C1442.78744,1620.65489 1440.80031,1621.13925 1440.0175,1621.44198 L1439.48468,1621.5439 C1437.64874,1621.8757 1432.53779,1622.68315 1430.80443,1622.68315 C1430.47324,1622.50151 1429.66032,1622.59233 1429.35924,1622.31988 L1428.96783,1622.50151 L1429.03138,1622.70377 C1429.32476,1623.70035 1429.74234,1625.77825 1431.25605,1625.46821 L1432.18823,1625.28531 C1433.53873,1625.0292 1435.66962,1624.66875 1436.34431,1624.83249 C1436.58518,1625.64985 1436.52496,1627.1332 1436.6755,1628.3441 L1435.08665,1628.38817 C1431.707,1628.49627 1428.79321,1628.65893 1427.46243,1628.3441 C1428.30546,1629.85772 1428.36567,1631.03835 1429.35924,1631.82543 C1431.4367,1631.91625 1434.59804,1630.9778 1436.6755,1630.9778 L1436.68311,1630.93858 C1436.70373,1630.91075 1436.47792,1633.33905 1436.6755,1635.1554 C1433.42383,1635.67003 1430.83453,1635.51867 1426.228,1635.39758 C1426.31832,1636.00303 1427.55275,1638.06155 1428.30546,1638.57619 L1428.6022,1638.61863 C1432.96178,1639.19757 1435.56018,1637.55291 1451.579,1637.81937 C1451.48868,1636.39657 1450.19403,1634.67104 1449.89295,1634.15641 C1445.10576,1634.24723 1441.40247,1634.94349 1440.07771,1634.94349 C1440.07771,1633.46014 1440.22826,1632.09788 1440.0175,1630.79617 C1441.10139,1630.28153 1443.60036,1630.22099 1448.71873,1630.13017 C1449.3209,1629.19173 1447.27355,1627.01211 1446.76171,1626.73966 C1445.13587,1626.83047 1441.76377,1627.61756 1440.0175,1627.6781 L1439.9994,1627.27714 C1439.93863,1626.21507 1439.78549,1624.76482 1440.07771,1624.25732 C1440.34869,1623.65187 1444.8649,1623.95459 1445.9789,1623.43996 L1445.80829,1623.07333 C1445.58749,1622.6226 1445.16598,1621.83552 1444.62403,1621.16953 C1448.35744,1624.25732 1449.7123,1623.74268 1449.89295,1623.95459 Z M1435.04967,1616.53784 L1434.86902,1616.53784 C1434.95934,1615.96266 1435.04967,1615.96266 1435.32064,1615.72048 L1435.5615,1615.75076 C1435.50129,1616.1443 1435.32064,1616.17457 1435.04967,1616.53784 Z M1448.17679,1620.3219 C1448.14668,1620.14026 1448.14668,1620.3219 1448.08646,1620.07972 L1448.17679,1620.07972 C1448.237,1620.01917 1448.2069,1620.04945 1448.41765,1620.01917 C1448.41765,1620.14026 1448.41765,1620.3219 1448.47787,1620.44299 L1448.34181,1620.44016 C1448.25974,1620.4331 1448.24131,1620.40839 1448.17679,1620.3219 Z M1481.92795,1629.10091 C1482.16881,1628.37437 1483.10216,1627.28456 1482.83119,1626.13421 C1482.53011,1625.13522 1481.47633,1623.98486 1480.90427,1623.13724 C1479.85049,1623.16751 1479.60962,1623.62159 1478.94725,1623.8335 C1477.71282,1623.95459 1477.20098,1624.07568 1475.75579,1624.19677 C1475.7859,1622.80424 1475.96655,1620.80626 1475.99665,1619.41372 C1476.8999,1619.38345 1478.31498,1618.98991 1479.18811,1618.80827 C1480.272,1618.50555 1481.08492,1618.68718 1482.37957,1618.68718 C1482.5,1618.53582 1482.68065,1618.41473 1482.83119,1618.29364 C1482.80108,1616.74975 1481.71719,1616.50757 1481.05481,1615.53885 C1479.30854,1615.65994 1478.64617,1616.50757 1475.99665,1616.59839 C1476.05687,1615.72048 1476.1472,1615.84157 1476.20741,1614.9334 L1476.20741,1613.20787 C1476.3472,1612.73 1476.82447,1612.33043 1476.65088,1611.81527 L1476.59882,1611.69425 C1476.1773,1610.42281 1473.82887,1610.08981 1472.59444,1610.08981 C1472.47401,1610.18063 1472.35358,1610.30172 1472.20304,1610.39253 L1472.40293,1611.68324 C1472.675,1613.51104 1472.52576,1613.02813 1472.8052,1616.1443 C1473.10628,1619.41372 1472.8052,1621.77497 1472.89552,1625.01413 C1472.17293,1625.01413 1470.09547,1625.43794 1469.40299,1625.31685 C1468.7105,1624.86276 1468.49974,1624.37841 1467.80726,1623.95459 L1467.41585,1624.74168 C1468.22516,1625.90414 1467.4806,1628.51735 1467.8193,1630.97433 L1467.86747,1631.28052 C1468.22877,1633.30878 1467.53628,1635.4884 1468.40942,1636.9112 C1468.62017,1637.48638 1470.00515,1638.48537 1470.63742,1638.09183 C1471.51055,1638.00101 1471.08904,1637.48638 1471.81163,1636.48739 L1474.2685,1636.45634 C1475.69593,1636.4331 1477.24251,1636.3997 1477.44184,1636.3663 L1477.91793,1636.77734 C1478.426,1637.19879 1479.05262,1637.60747 1480.00103,1637.60747 C1481.35589,1636.94147 1480.96449,1636.45711 1481.53654,1634.97376 L1481.90088,1629.67531 C1481.92311,1629.32021 1481.93433,1629.10091 1481.92795,1629.10091 Z M1462.3878,1615.17558 C1463.1104,1614.90313 1464.04375,1612.20888 1463.23083,1611.54289 C1463.02007,1611.11907 1460.06948,1610.60444 1458.95548,1610.39253 C1459.13613,1611.27043 1460.64153,1613.26842 1461.6351,1615.35721 C1461.90607,1615.38749 1462.17705,1615.38749 1462.3878,1615.17558 Z M1462.02651,1613.29869 C1462.02651,1613.45005 1462.05661,1613.38951 1461.96629,1613.48032 L1461.9964,1613.57114 C1461.69532,1613.41978 1461.51467,1613.23814 1461.45445,1612.93542 C1461.66521,1613.05651 1461.72542,1613.23814 1462.02651,1613.29869 Z M1468.31909,1618.44501 C1468.31909,1617.53683 1466.96423,1615.11504 1466.21153,1614.90313 C1465.42872,1615.44803 1464.40504,1615.44803 1463.47169,1615.8113 L1462.3775,1616.10716 C1458.57056,1617.11155 1456.95831,1617.23411 1455.52316,1616.56811 C1455.73392,1619.05045 1457.1791,1619.41372 1458.23289,1619.56509 C1461.39424,1618.83855 1468.25888,1618.35419 1468.31909,1618.44501 Z M1465.60937,1615.90212 L1465.82012,1615.8113 L1465.75991,1617.41574 L1465.60937,1616.02321 L1465.60937,1615.90212 Z M1461.9964,1616.90111 L1462.23726,1616.90111 C1462.17705,1617.0222 1462.08672,1617.05247 1461.9964,1617.14329 L1461.66521,1617.14329 C1461.75553,1617.05247 1461.84586,1617.0222 1461.9964,1616.90111 Z M1466.66315,1623.86377 C1466.57784,1623.20619 1467.75475,1622.35959 1467.47997,1621.7065 L1467.41585,1621.59334 C1466.96423,1620.62462 1464.16418,1619.14127 1463.35126,1619.92836 C1464.31472,1621.13925 1463.17061,1630.70535 1462.62867,1632.76387 L1462.16555,1633.02018 C1461.23386,1633.52378 1460.22002,1633.95747 1458.23289,1634.03532 C1457.93181,1634.03532 1457.66083,1633.67205 1457.45008,1633.58123 C1457.11889,1633.6115 1456.84792,1633.58123 1456.57694,1633.67205 C1456.93824,1634.85267 1456.81781,1636.9112 1457.84148,1637.57719 C1458.95548,1638.69728 1459.70818,1637.66801 1464.67602,1634.36831 L1465.25478,1633.83685 C1467.02804,1632.18247 1466.62596,1632.26527 1467.17499,1631.49243 C1465.42872,1631.58325 1464.37494,1631.91625 1463.53191,1632.30979 C1464.64591,1630.70535 1465.94056,1627.10293 1466.66315,1623.86377 Z M1457.69094,1622.04743 L1458.15411,1624.66337 C1458.46434,1626.38698 1458.80193,1628.15792 1459.07591,1629.16145 C1459.34689,1629.58527 1460.1598,1632.1887 1460.70175,1631.88597 C1461.15337,1630.94753 1462.68888,1629.10091 1462.08672,1627.98083 C1462.08672,1626.28557 1458.86516,1622.31988 1457.69094,1622.04743 Z M1478.22465,1633.85368 C1476.59882,1634.2775 1473.22671,1634.64077 1471.23958,1634.64077 C1471.23958,1632.03734 1470.87828,1630.16044 1470.72774,1627.70838 C1471.72131,1627.64783 1476.96011,1626.55802 1478.31498,1627.22402 C1478.73649,1629.43391 1478.43541,1631.67407 1478.22465,1633.85368 Z M1510.68116,1611.75479 C1509.3263,1611.75479 1502.07025,1612.78406 1500.32398,1612.96569 C1500.62506,1612.42079 1501.10679,1610.99798 1500.65517,1610.18063 C1500.05301,1609.09082 1497.43361,1609 1495.56691,1609 L1496.15556,1609.96034 C1497.16691,1611.63245 1497.80185,1612.79104 1498.00566,1612.99596 L1497.71525,1613.01424 C1495.77181,1613.10724 1488.96153,1613.02624 1487.22697,1613.02624 C1487.7087,1613.7225 1488.64205,1616.02321 1489.15389,1616.35621 C1489.15389,1616.02321 1502.22079,1614.9334 1503.48533,1614.96367 C1503.33479,1616.02321 1502.13047,1618.92936 1501.31755,1619.50454 C1500.71539,1619.92836 1498.24653,1619.74672 1497.31318,1619.80727 L1497.4109,1618.94724 C1497.49828,1618.07277 1497.54902,1616.98688 1497.22285,1616.65893 C1496.59058,1615.4783 1494.36258,1616.38648 1492.9475,1616.41675 C1493.91096,1617.65792 1494.96475,1619.20182 1495.71745,1619.83754 L1494.82498,1619.822 C1493.91125,1619.81531 1492.56935,1619.83391 1492.16469,1619.9889 L1490.98218,1619.60294 C1488.73988,1618.85161 1488.73713,1618.74853 1488.37108,1619.35318 C1489.00335,1623.10696 1488.70226,1634.24723 1488.4614,1636.5782 C1488.91302,1637.03229 1490.50875,1637.51665 1490.90015,1637.97074 C1492.34534,1638.78809 1492.28513,1633.00605 1492.25502,1627.92028 C1494.27226,1627.43592 1497.64436,1624.86276 1498.60782,1623.31887 C1498.72826,1623.13724 1496.59058,1622.0777 1495.86799,1621.92634 L1497.56781,1621.81646 C1501.37451,1621.56044 1506.11369,1621.18753 1507.51981,1621.10898 L1507.49683,1624.52641 C1507.45251,1628.48818 1507.32932,1634.3363 1507.00798,1635.00404 C1506.58646,1635.85166 1504.29825,1635.73058 1503.39501,1636.21493 C1505.35203,1637.03229 1507.33917,1638.48537 1507.97144,1639 C1509.38652,1639 1509.38652,1638.33401 1509.98868,1637.51665 C1510.73421,1636.0751 1510.66048,1634.22169 1510.65176,1631.61645 L1510.65106,1629.16145 C1510.77149,1627.73865 1510.95214,1626.37639 1511.04246,1624.92331 C1511.04246,1623.988 1511.54767,1620.20239 1511.44702,1619.6972 L1511.38205,1619.48228 C1511.13687,1618.70893 1510.68739,1618.04416 1508.33273,1617.53683 C1507.61014,1617.77901 1506.82733,1618.44501 1505.80365,1618.778 C1506.19506,1618.62664 1502.46166,1619.20182 1503.12403,1618.98991 L1505.36095,1617.58628 C1505.8881,1617.25776 1506.46603,1616.90679 1507.30906,1616.41675 L1507.30353,1616.24712 C1507.27472,1615.85103 1507.11336,1615.44046 1506.37571,1614.75177 L1507.25024,1614.84315 C1508.903,1615.00536 1511.53561,1615.22047 1511.73495,1615.14531 C1512.93927,1614.75177 1511.13278,1612.63269 1510.68116,1611.75479 Z M1497.70458,1610.69526 L1497.61426,1610.69526 L1497.61426,1610.5439 L1497.70458,1610.5439 L1497.70458,1610.69526 Z M1495.62513,1621.95666 C1495.59846,1621.95808 1495.62712,1621.98762 1495.62712,1622.01715 L1495.48794,1622.32684 C1494.82472,1623.73229 1492.94982,1627.01677 1492.25502,1627.79919 L1492.24205,1626.54243 C1492.2302,1624.76284 1492.25314,1623.16562 1492.37545,1622.10797 L1492.49336,1622.11365 C1492.643,1622.11558 1492.88597,1622.10672 1493.20522,1622.09087 L1495.62503,1621.95666 L1495.62513,1621.95666 Z M1506.22517,1624.04541 C1506.10473,1623.71241 1501.40787,1622.16852 1499.96269,1622.16852 C1500.29388,1622.74369 1503.96706,1626.22503 1504.93052,1627.49647 C1505.74344,1627.55701 1506.46603,1625.40767 1506.22517,1624.04541 Z M1495.65723,1624.46922 L1495.65723,1624.65086 L1495.50669,1624.65086 C1495.5368,1624.4995 1495.62712,1624.37841 1495.65723,1624.19677 C1495.74756,1624.37841 1495.71745,1624.31786 1495.65723,1624.46922 Z M1503.90685,1634.12614 C1504.65051,1634.18365 1504.33446,1633.20298 1504.45587,1632.63758 L1504.4789,1632.55197 C1504.8703,1631.37134 1504.81009,1629.52472 1505.20149,1628.556 C1505.02084,1628.25328 1505.08106,1627.43592 1503.06382,1626.86075 C1502.10036,1627.01211 1502.64231,1627.10293 1501.8595,1627.4662 C1501.07669,1627.79919 1498.30674,1627.79919 1497.37339,1628.04137 C1496.89166,1628.16246 1496.31961,1628.0111 1495.74756,1627.64783 L1495.19669,1627.47965 C1494.93798,1627.40565 1494.76402,1627.38547 1493.88085,1627.28456 C1493.73031,1628.556 1494.30237,1630.06963 1494.30237,1631.67407 L1494.29508,1632.05463 C1494.2698,1632.84419 1494.20344,1633.76719 1494.51312,1634.15641 C1494.8142,1634.88295 1495.5368,1634.8224 1496.16907,1635.18567 C1496.89166,1634.94349 1496.16907,1634.76186 1497.28307,1634.12614 C1498.21642,1633.9445 1501.04658,1633.58123 1502.01004,1633.46014 C1502.40144,1633.58123 1502.82295,1634.39859 1503.90685,1634.12614 Z M1501.97993,1631.76488 C1501.10679,1631.94652 1498.03577,1632.15843 1497.13253,1632.37033 C1496.77123,1631.97679 1497.0422,1630.70535 1496.92177,1630.0999 C1496.92177,1629.67608 1497.88523,1629.70636 1499.54117,1629.58527 L1500.80862,1629.42356 C1501.43392,1629.34833 1501.80636,1629.32528 1502.04014,1629.40363 L1501.97993,1631.76488 Z M1490.80983,1636.06357 C1490.74961,1636.12412 1490.80983,1636.06357 1490.6894,1636.06357 L1490.54536,1635.97179 C1490.39795,1635.8662 1490.4124,1635.80323 1490.38832,1635.4884 L1490.64424,1635.52245 C1490.70445,1635.5338 1490.74961,1635.54894 1490.80983,1635.57921 L1490.99048,1635.57921 L1490.97041,1635.81242 C1490.95703,1635.91557 1490.93026,1635.94248 1490.80983,1636.06357 Z M1541,1612.5116 C1540.93978,1611.4218 1538.83222,1609.90817 1537.47735,1610.24117 C1536.66444,1610.60444 1535.91173,1610.84662 1535.06871,1611.17962 L1532.99836,1611.26132 C1529.45857,1611.40918 1525.5947,1611.62361 1523.23623,1612.02725 C1522.39321,1611.99697 1520.10499,1611.20989 1519.53294,1610.7558 L1519.2839,1610.77665 C1519.04712,1610.80252 1518.97427,1610.83653 1518.81034,1610.90716 C1518.90067,1611.69425 1519.32218,1612.11806 1519.47272,1612.60242 C1519.59315,1613.63169 1519.71359,1614.63068 1519.89424,1615.65994 C1520.82759,1623.71241 1518.72002,1634.94349 1516.43181,1637.72856 C1520.8878,1634.73158 1521.82115,1631.43189 1522.78461,1628.49546 L1525.07733,1628.36405 C1526.35623,1628.29674 1527.69223,1628.24723 1527.69223,1628.3441 C1527.66212,1629.58527 1527.81266,1632.55197 1527.63201,1633.58123 L1527.53063,1633.89954 C1527.42748,1634.23597 1527.31998,1634.6903 1527.45136,1635.06458 C1527.69223,1635.88194 1528.41482,1636.75984 1528.83634,1637.4561 C1529.22774,1637.48638 1530.10087,1636.72957 1530.31163,1636.54793 C1532.38909,1635.30676 1530.37185,1634.24723 1531.12455,1628.13219 C1533.38266,1628.19273 1535.06871,1627.73865 1536.69454,1627.73865 L1536.71006,1628.15082 C1536.78313,1629.59803 1537.03942,1631.70709 1536.57411,1632.34006 C1536.24292,1633.24823 1533.77406,1633.46014 1532.62995,1633.58123 L1536.14658,1637.27328 C1536.32478,1637.46332 1536.42922,1637.57719 1536.42357,1637.57719 C1537.6279,1638.24319 1538.23006,1637.51665 1538.86233,1636.09384 C1541.54195,1629.97881 1539.22362,1615.23613 1541,1612.5116 Z M1537.68811,1612.63269 L1537.64572,1612.67338 C1537.63271,1612.68355 1537.62187,1612.68718 1537.56768,1612.72351 C1537.47735,1612.66297 1537.50746,1612.69324 1537.35692,1612.63269 C1537.44725,1612.39051 1537.47735,1612.39051 1537.56768,1612.23915 C1537.6279,1612.23915 1537.68811,1612.26942 1537.77844,1612.32997 C1537.71822,1612.5116 1537.77844,1612.5116 1537.68811,1612.63269 Z M1529.76969,1613.48032 L1529.76969,1613.35923 C1529.92023,1613.32896 1529.8299,1613.32896 1529.95033,1613.23814 C1529.98044,1613.35923 1529.95033,1613.32896 1529.98044,1613.48032 L1529.76969,1613.48032 Z M1536.75476,1618.71746 C1535.73109,1618.71746 1533.29233,1619.111 1531.06433,1618.62664 L1531.05532,1617.80118 C1531.03121,1617.05917 1530.9537,1617.06585 1530.76325,1613.57114 L1531.08587,1613.53856 C1532.34822,1613.42235 1534.94304,1613.29737 1536.78487,1613.60141 C1537.50746,1614.57013 1536.63433,1616.29566 1536.75476,1618.71746 Z M1527.63201,1618.92936 C1526.57823,1619.38345 1524.38034,1619.444 1523.29645,1619.444 C1523.53731,1617.47629 1523.23623,1615.65994 1523.77818,1614.32795 C1525.7352,1613.81332 1526.15672,1614.11604 1527.69223,1613.81332 C1527.87288,1614.6004 1527.87288,1617.96065 1527.63201,1618.92936 Z M1523.1158,1620.50353 L1523.1158,1620.01917 L1523.21742,1620.08729 C1523.24376,1620.10242 1523.26634,1620.10999 1523.29645,1620.10999 L1523.29645,1620.50353 L1523.1158,1620.50353 Z M1536.78487,1624.83249 L1536.78487,1625.46821 C1536.30314,1625.22603 1531.33531,1625.55903 1531.06433,1625.74067 L1531.06433,1621.29062 C1531.6665,1621.10898 1536.63433,1621.07871 1536.69454,1621.04844 C1536.99563,1621.47225 1537.23649,1624.1665 1536.78487,1624.83249 Z M1527.45136,1625.77094 C1525.88574,1626.13421 1524.5911,1626.22503 1522.81472,1626.22503 C1522.90504,1625.95257 1523.29645,1621.95661 1523.23623,1621.77497 C1524.5911,1621.62361 1526.15672,1621.41171 1527.51158,1621.23007 L1527.5683,1622.9375 C1527.59949,1624.06629 1527.60349,1625.29295 1527.45136,1625.77094 Z M1521.33942,1621.89606 C1521.2491,1621.77497 1521.2491,1621.77497 1521.21899,1621.62361 L1521.33942,1621.62361 L1521.33942,1621.89606 Z M1520.97813,1624.1665 L1520.97813,1624.34813 L1520.79748,1624.34813 L1520.86438,1624.08129 C1520.87108,1624.0555 1520.87777,1624.03532 1520.8878,1624.01514 C1520.8878,1623.47023 1520.91791,1623.19778 1521.03834,1622.92533 C1521.21899,1623.13724 1521.18888,1623.77296 1520.97813,1624.1665 Z M1536.63433,1635.03431 L1536.48379,1635.03431 L1536.48379,1634.8224 L1536.63433,1634.8224 L1536.63433,1635.03431 Z" id="全站商用"></path>
        </g>
    </g>
</svg>