<?xml version="1.0" encoding="UTF-8"?>
<svg width="42px" height="42px" viewBox="0 0 42 42" version="1.1" xmlns="http://www.w3.org/2000/svg" xmlns:xlink="http://www.w3.org/1999/xlink">
    <!-- Generator: Sketch 59 (86127) - https://sketch.com -->
    <title>zhongwen</title>
    <desc>Created with Sketch.</desc>
    <g id="页面-1" stroke="none" stroke-width="1" fill="none" fill-rule="evenodd">
        <g id="字体备份" transform="translate(-1463.000000, -1552.000000)" fill="#000000" fill-rule="nonzero">
            <g id="zhongwen" transform="translate(1463.000000, 1552.000000)">
                <path d="M18.9,22.8 L18.9,19.2 L14.73,19.2 L14.73,22.8 L18.9,22.8 Z M23.1,22.8 L27.33,22.8 L27.33,19.2 L23.1,19.2 L23.1,22.8 Z M18.9,15 L18.9,9 L23.1,9 L23.1,15 L31.53,15 L31.53,27 L23.1,27 L23.1,33 L18.9,33 L18.9,27 L10.53,27 L10.53,15 L18.9,15 Z M21,37.8 C27.002062,37.8 32.548196,34.5979382 35.549227,29.4000001 C38.550258,24.2020619 38.550258,17.7979381 35.549227,12.5999999 C32.548196,7.4020618 27.002062,4.2 21,4.2 C11.7216162,4.2 4.2,11.7216162 4.2,21 C4.2,30.2783838 11.7216162,37.8 21,37.8 Z M21,42 C9.40202025,42 0,32.5979797 0,21 C0,9.40202025 9.40202025,0 21,0 C32.5979797,0 42,9.40202025 42,21 C42,32.5979797 32.5979797,42 21,42 Z" id="形状"></path>
            </g>
        </g>
    </g>
</svg>