<?xml version="1.0" encoding="UTF-8"?>
<svg width="40px" height="40px" viewBox="0 0 40 40" version="1.1" xmlns="http://www.w3.org/2000/svg" xmlns:xlink="http://www.w3.org/1999/xlink">
    <!-- Generator: Sketch 59 (86127) - https://sketch.com -->
    <title>箭头备份</title>
    <desc>Created with Sketch.</desc>
    <g id="页面-1" stroke="none" stroke-width="1" fill="none" fill-rule="evenodd">
        <g id="字体备份" transform="translate(-1964.000000, -3264.000000)" fill="#000000" fill-rule="nonzero">
            <g id="箭头备份" transform="translate(1984.000000, 3284.000000) scale(-1, 1) rotate(90.000000) translate(-1984.000000, -3284.000000) translate(1964.000000, 3264.000000)">
                <rect id="矩形" opacity="0" x="0" y="0" width="40" height="40"></rect>
                <path d="M20,0 C9,0 0,9 0,20 C0,31 9,40 20,40 C31,40 40,31 40,20 C40,9 31,0 20,0 Z M20,36.6666667 C10.8333333,36.6666667 3.33333332,29.1666667 3.33333332,20 C3.33333332,10.8333333 10.8333333,3.33333332 20,3.33333332 C29.1666667,3.33333332 36.6666667,10.8333333 36.6666667,20 C36.6666667,29.1666667 29.1666667,36.6666667 20,36.6666667 Z M31,15.5 C30.3333333,14.8333333 29.3333333,14.8333333 28.6666667,15.5 L20,24.1666667 L11.3333333,15.5 C10.6666666,14.8333333 9.66666664,14.8333333 8.99999999,15.5 C8.33333332,16.1666667 8.33333332,17.1666667 8.99999999,17.8333333 L18.8333333,27.6666667 C19.5,28.3333334 20.5,28.3333334 21.1666667,27.6666667 L31,17.8333333 C31.6666667,17.3333333 31.6666667,16.1666666 31,15.5 Z" id="形状"></path>
            </g>
        </g>
    </g>
</svg>