<?xml version="1.0" encoding="UTF-8"?>
<svg width="118px" height="29px" viewBox="0 0 118 29" version="1.1" xmlns="http://www.w3.org/2000/svg" xmlns:xlink="http://www.w3.org/1999/xlink">
    <!-- Generator: Sketch 59 (86127) - https://sketch.com -->
    <title>海量优选</title>
    <desc>Created with Sketch.</desc>
    <g id="页面-1" stroke="none" stroke-width="1" fill="none" fill-rule="evenodd">
        <g id="字体备份" transform="translate(-824.000000, -1609.000000)" fill="#000000" fill-rule="nonzero">
            <path d="M837.071701,1614.51082 C837.432589,1614.42051 837.252145,1614.81185 837.943848,1614.66133 C839.086661,1614.39041 839.958808,1614.57102 841.131695,1614.3001 L842.515101,1614.3001 C843.297026,1614.08938 844.349617,1613.99907 845.221764,1613.81846 C846.845762,1613.42712 848.048723,1613.90876 849.281758,1613.27661 C849.37198,1612.94548 849.37198,1612.55414 849.462202,1612.22301 C849.281758,1611.07911 848.349463,1610.71787 847.597612,1610.14592 C846.424725,1610.35664 845.582652,1611.35003 844.499987,1611.71126 C843.086507,1612.04239 841.61288,1612.37352 840.139252,1612.67455 L839.778246,1612.73981 C838.938641,1612.88386 838.139329,1612.953 837.823552,1612.58424 C838.154366,1612.28322 838.755847,1611.50055 838.966365,1611.10921 C839.086661,1610.83829 838.966365,1610.44695 839.056587,1610.26633 C838.545329,1609.27294 837.432589,1608.97192 835.86874,1609.00202 L833.944002,1609.48366 C833.944002,1610.17603 834.334964,1610.41685 834.936445,1610.56736 L834.54952,1611.89481 C833.85545,1614.23822 832.886398,1617.1147 831.207265,1618.6951 C833.613187,1618.60479 836.31985,1615.02256 837.071701,1614.51082 Z M829.072008,1616.25678 C829.252453,1616.25678 829.793785,1613.2164 829.884007,1613.1562 C829.432897,1612.16281 828.199861,1610.77808 825.192458,1610.62757 C824.891718,1611.049 828.019417,1615.35369 829.072008,1616.25678 Z M850.003535,1629.89331 C849.853165,1629.8331 849.161462,1630.31475 848.7705,1630.34485 C848.92087,1629.08054 848.800574,1627.96674 848.890796,1626.31109 C849.732869,1626.4315 851.176422,1626.34119 852.018495,1626.4917 L852.012691,1626.01864 C851.988599,1625.12924 851.875065,1624.14369 851.417014,1623.48143 C851.23657,1622.84927 850.244127,1623.39112 849.251684,1623.42122 C849.732869,1621.13342 849.823091,1619.23695 849.793017,1616.58791 L849.468184,1616.27995 C848.86001,1615.71475 848.169019,1615.16613 847.176576,1614.96236 C845.49243,1614.69143 845.973615,1615.65472 844.740579,1616.01595 C841.402362,1616.67821 838.48518,1616.61801 837.402515,1617.40068 C836.590516,1617.31037 836.199554,1616.88893 835.86874,1616.40729 L835.267259,1616.40729 C834.064298,1618.7854 835.026667,1623.51153 833.793631,1625.73913 C832.380152,1626.07026 831.838819,1626.4315 830.455414,1625.88965 L830.665932,1626.76263 C830.966672,1628.32797 831.207265,1628.29787 832.109486,1629.08054 C832.951559,1629.08054 832.74104,1628.80961 833.222225,1628.32797 C833.462817,1628.56879 833.402669,1629.44177 833.222225,1629.95352 C833.312447,1630.64588 832.951559,1632.27143 832.771114,1633.0541 C833.011707,1633.83677 833.733483,1634.10769 834.184594,1634.49903 C835.116889,1634.46892 835.477777,1633.89697 836.16948,1633.65615 C837.372441,1633.38523 838.575403,1633.47553 839.778364,1633.20461 L845.131542,1632.78317 C844.710505,1633.83677 843.026359,1634.61944 842.033916,1635.07098 C842.906063,1636.27509 844.109025,1636.69653 844.890949,1637.99094 C847.086354,1638.20166 847.778057,1634.67964 848.620129,1633.26481 C849.131388,1633.17451 850.304275,1634.2582 851.266644,1633.77656 C851.567385,1632.42194 851.0862,1630.25454 850.003535,1629.89331 Z M848.379537,1621.79568 L848.326754,1621.89538 C848.299135,1621.94189 848.302204,1621.92039 848.259241,1622.0064 C848.169019,1621.64516 848.078797,1621.37424 847.898353,1621.10331 C847.898353,1620.53136 847.958501,1620.35075 848.259241,1620.14003 C848.199093,1619.11653 847.717908,1618.84561 847.50739,1618.00273 L848.379537,1618.63489 C848.439685,1619.53797 848.830648,1620.9528 848.379537,1621.79568 Z M845.582652,1623.75235 C844.981171,1623.96307 842.454953,1624.08348 841.853472,1624.38451 L841.793324,1624.38451 C842.244435,1623.72225 844.409765,1621.97629 842.875989,1621.13342 C842.244435,1620.65177 839.507698,1619.59818 838.815995,1619.95941 C839.507698,1620.65177 839.89866,1622.87938 841.432436,1624.38451 C840.500141,1624.98657 837.763404,1624.77585 837.011553,1625.01667 C837.372441,1623.84266 837.552885,1620.50126 837.73333,1619.47777 C838.214514,1618.63489 845.161616,1617.6716 845.672874,1618.60479 C846.214207,1619.53797 845.612726,1622.60845 845.582652,1623.75235 Z M828.079565,1623.39112 C828.229935,1623.39112 828.831416,1620.26044 828.921638,1620.20023 C828.440454,1619.17674 827.14727,1618.45427 824.019571,1618.24356 C823.718831,1618.60479 826.966826,1622.45794 828.079565,1623.39112 Z M827.387863,1628.6892 L827.120172,1629.35318 C826.378946,1631.21424 825.272369,1634.02598 824.260163,1633.62605 C824.621052,1635.70314 827.026974,1636.30519 827.568307,1636.12457 C828.530676,1635.55262 828.891564,1632.48214 829.041934,1631.00711 L829.234128,1629.83012 C829.591859,1627.58584 829.798081,1625.91975 830.004303,1623.39112 L827.312553,1628.83649 C827.333898,1628.79492 827.358945,1628.74593 827.387863,1628.6892 Z M845.402208,1630.67598 L844.765533,1630.64481 C843.983758,1630.61068 842.731087,1630.57336 842.485027,1630.67598 C842.845915,1630.04382 844.890949,1629.29126 843.47747,1627.81622 C842.936137,1627.45499 841.703102,1627.21417 840.861029,1626.94324 C841.522658,1626.34119 844.469913,1626.19067 845.582652,1626.19067 C845.432282,1628.89992 845.733022,1630.01372 845.402208,1630.67598 Z M836.500294,1631.78978 C836.680739,1630.28465 836.710813,1628.96013 836.770961,1627.30448 C838.064144,1627.30448 839.086661,1627.03355 840.379845,1626.94324 C840.470067,1628.20756 841.402362,1629.26115 841.642954,1630.9168 L840.399581,1631.12517 C839.099819,1631.33824 837.673182,1631.56401 836.500294,1631.78978 Z M835.146963,1631.69947 L835.00439,1631.65694 C834.895232,1631.62254 834.949811,1631.62254 834.786075,1631.45865 C834.725926,1631.39845 834.665778,1631.39845 834.60563,1631.36834 C834.816149,1631.24793 834.966519,1631.12752 835.056741,1630.97701 L835.232486,1631.05321 C835.365,1631.11811 835.387555,1631.15762 835.477777,1631.24793 C835.417629,1631.36834 835.297333,1631.54896 835.146963,1631.69947 Z M859.537003,1619.14664 C859.897892,1618.90582 860.649742,1618.7252 861.070779,1618.24356 L863.87309,1618.09733 C866.538927,1617.95011 869.867433,1617.7431 871.656838,1617.55119 C872.468837,1617.43078 873.040244,1618.45427 874.303353,1618.06294 C874.995056,1617.91243 875.32587,1617.28027 875.837129,1616.94914 C876.228091,1615.53431 876.408535,1614.14959 876.859646,1612.67455 L876.950394,1612.46559 C877.152407,1612.01905 877.439645,1611.41454 877.130312,1610.89849 C876.859646,1610.41685 875.536388,1609.60407 874.964982,1609.42346 C874.183057,1609.21274 873.250762,1609.57397 872.679355,1609.66428 L872.409713,1609.69954 C870.011559,1609.9636 861.102694,1609.95241 860.439224,1610.35664 C859.807669,1610.08572 858.454338,1609.9051 858.003228,1609.48366 L857.552117,1609.48366 C857.281451,1609.96531 858.123524,1616.82873 858.334042,1617.82212 C858.514486,1618.42417 858.8453,1618.66499 859.537003,1619.14664 Z M874.303353,1610.89849 L874.604093,1610.89849 L874.604093,1610.92859 C874.574019,1610.9888 874.543945,1611.0189 874.513871,1611.049 L874.303353,1611.049 L874.303353,1610.89849 Z M860.770039,1612.25311 L861.705719,1612.1513 C864.209148,1611.89569 869.985282,1611.40114 873.401132,1611.53065 L873.395358,1611.92993 C873.386697,1612.21097 873.365043,1612.5722 873.31091,1612.82507 L873.160643,1612.81895 C871.500165,1612.79705 861.247942,1613.60664 861.161001,1613.57763 C861.010631,1613.00568 860.860261,1612.76486 860.770039,1612.25311 Z M872.739503,1615.86544 C872.589133,1616.10626 862.784999,1616.79863 861.191075,1616.88893 L861.156226,1616.63649 C861.06678,1616.05573 861.059699,1616.51503 861.221149,1615.3838 L861.807165,1615.35185 C864.532361,1615.18813 869.570989,1614.71294 872.950022,1614.60113 L872.944246,1614.85434 C872.92923,1615.19946 872.879849,1615.67813 872.739503,1615.86544 Z M854.81538,1622.0365 L855.154744,1622.03017 C857.954504,1621.94446 870.066616,1621.01856 876.979942,1621.13342 L877.785616,1621.28808 C879.592314,1621.61149 881.280529,1621.73159 881.280529,1620.8926 C881.190306,1620.44105 879.836975,1618.42417 879.325716,1618.27366 C878.890359,1617.97406 876.904041,1618.53694 875.905977,1618.75834 L875.571385,1618.8264 C874.7693,1618.9494 866.30366,1619.57309 860.198632,1619.71859 L859.845998,1619.71718 C858.109434,1619.73101 854.475232,1619.99678 853.943233,1619.68849 C853.762789,1619.8089 854.484566,1621.28393 854.81538,1622.0365 Z M858.604708,1622.60845 L857.732561,1622.75896 C857.943079,1624.38451 858.24382,1625.46821 858.424264,1627.03355 L858.39419,1628.80961 C858.514486,1629.23105 858.755078,1629.95352 858.965597,1630.31475 C859.476855,1630.79639 859.537003,1631.33824 860.198632,1630.82649 C860.70989,1630.61578 860.739964,1630.67598 861.040705,1630.31475 C861.612111,1629.95352 864.739811,1629.98362 865.611958,1630.01372 L865.581884,1631.72958 L865.220514,1631.77973 C863.318178,1632.0211 858.54456,1632.33765 857.281451,1631.57906 L857.328847,1632.13897 C857.398138,1632.80364 857.552117,1633.19859 858.514486,1634.01738 L859.012607,1633.99852 C860.886673,1633.90512 866.778603,1633.5062 865.55181,1633.74646 L865.55181,1634.86026 C862.935369,1634.86026 855.597305,1635.85365 854.544714,1635.10108 C854.81538,1635.97406 855.537157,1637.4792 856.22886,1637.75012 L856.37475,1637.74673 C857.553628,1637.68746 865.233793,1637.0315 864.980403,1637.08786 C868.468991,1636.57611 874.092835,1636.84704 878.60394,1637.65981 C879.235494,1637.84043 879.686605,1637.62971 880.107641,1637.93074 C881.521121,1637.5093 879.746753,1636.4557 879.024976,1634.83016 C877.100238,1634.37862 876.73935,1634.89036 874.964982,1634.86026 L873.160856,1634.88759 C870.202458,1634.9158 869.629848,1634.82113 868.709583,1634.76995 C868.739657,1634.37862 868.679509,1634.01738 868.709583,1633.47553 C870.694469,1633.17451 875.1755,1633.23471 877.852089,1633.38523 C877.822015,1632.15101 877.611497,1631.30814 876.73935,1631.09742 L873.57952,1631.33962 C871.481805,1631.49084 869.081086,1631.63041 868.709583,1631.48875 L868.799805,1629.803 C872.919948,1629.14074 874.453723,1630.46526 875.656685,1629.86321 C877.070164,1628.80961 877.19046,1626.19067 877.160386,1623.02989 C876.438609,1622.39773 876.408535,1622.60845 875.686759,1621.97629 C874.604093,1621.97629 874.243205,1622.36763 873.431206,1622.54825 L869.314734,1622.76792 C863.958303,1623.07289 860.951618,1623.30422 860.439224,1623.05999 C859.266337,1623.1202 859.296411,1623.54164 858.604708,1622.60845 Z M873.972539,1624.02328 C874.092835,1624.234 873.972539,1624.89626 874.062761,1625.46821 L872.895296,1625.48734 C871.492052,1625.50055 869.39035,1625.50652 868.799805,1625.52841 L868.867472,1624.8511 C868.890027,1624.60276 868.905064,1624.35441 868.890027,1624.17379 L869.091429,1624.16682 C870.107403,1624.11305 873.500608,1623.77319 873.972539,1624.02328 Z M861.341445,1626.22078 L861.161001,1624.65544 L863.217313,1624.5877 C864.04059,1624.5576 864.860107,1624.51997 865.251069,1624.47482 C865.311217,1624.77585 865.190921,1625.52841 865.220995,1625.88965 L864.847766,1625.89129 C863.790554,1625.90048 861.898699,1625.95517 861.341445,1626.22078 Z M867.115659,1627.18406 L867.446474,1626.40139 L867.334818,1628.25354 C867.286692,1628.8604 867.250607,1628.55412 867.115659,1627.18406 Z M873.671798,1627.78612 C873.61165,1627.90653 873.491354,1628.05704 873.371058,1628.20756 L868.829879,1628.11725 L868.859953,1627.03355 C869.551656,1626.91314 873.16054,1626.91314 873.852243,1627.00345 L873.750743,1627.39478 C873.716909,1627.53025 873.686835,1627.66571 873.671798,1627.78612 Z M865.371365,1628.32797 C864.469144,1628.32797 862.27374,1628.53869 861.461741,1628.629 L861.391488,1628.2037 C861.358287,1627.9848 861.329416,1627.76806 861.311371,1627.6055 C862.12337,1627.51519 864.649589,1627.51519 865.401439,1627.48509 L865.371365,1628.32797 Z M883.957117,1624.44472 C885.160079,1623.78246 886.543484,1622.39773 887.686297,1620.9528 C888.07726,1624.35441 888.047186,1630.10403 887.716372,1633.95718 C887.656223,1634.67964 887.355483,1635.16129 887.355483,1635.97406 C887.987038,1636.72663 889.310295,1637.23837 889.94185,1637.81033 C890.867205,1637.81033 891.236457,1635.9456 891.076342,1634.70496 L891.054589,1634.55923 C890.783923,1632.90358 890.844071,1620.38085 891.295181,1619.56808 C891.415478,1618.51448 890.723775,1618.48438 889.821554,1618.39407 C890.844071,1617.37058 892.10718,1615.11287 892.678587,1613.54753 L892.812687,1613.43913 C893.259016,1613.06228 894.043948,1612.24408 893.610882,1611.62096 C893.490586,1610.65767 890.423034,1609.54387 888.768963,1609.54387 C888.949407,1610.17603 889.280221,1610.26633 889.280221,1611.07911 C889.280221,1612.52404 888.738889,1614.54092 887.626149,1617.40068 L883.957117,1624.44472 Z M912.196634,1635.52252 C912.136486,1634.83016 911.144043,1631.15762 910.392192,1629.62239 C910.392192,1630.25181 909.969664,1631.2544 909.734676,1631.92905 L909.670415,1632.12091 C909.249379,1633.41533 908.226862,1634.2281 906.211901,1633.50564 C904.046571,1632.69286 904.227015,1629.20095 904.227015,1625.49831 C904.227015,1624.74574 904.948792,1622.69876 904.678126,1622.30742 C904.437534,1622.21712 903.565387,1622.0064 903.174424,1621.88599 L902.75033,1621.7426 C902.627721,1621.69738 902.637388,1621.67527 902.212055,1621.40434 C903.836053,1620.83239 908.467454,1620.9829 909.911007,1621.37424 C910.845072,1621.60089 911.432816,1621.26758 911.599022,1620.60016 L911.625227,1620.47116 C911.895894,1619.8089 909.730563,1618.03284 909.249379,1617.52109 C908.43738,1617.6716 906.783308,1618.09304 906.001383,1618.36397 C904.336375,1618.88119 903.192009,1618.93212 902.829849,1618.51678 L902.783462,1618.45427 C902.121833,1617.79202 903.354868,1612.37352 903.354868,1611.56075 C903.054128,1610.89849 900.046725,1610.11582 898.813689,1610.32654 C898.843764,1611.16942 899.385096,1611.25972 899.385096,1611.83168 L899.393852,1613.10707 C899.461239,1617.93959 899.865713,1618.30717 898.753541,1619.08643 L898.09834,1619.24091 C895.198762,1619.90189 892.975179,1620.09228 892.10718,1619.44766 C892.347773,1621.70537 893.881548,1623.48143 895.625842,1622.30742 L898.422727,1621.88599 C898.88609,1622.0889 897.955074,1624.99949 897.831765,1625.80618 L897.821246,1625.88965 C897.520506,1629.20095 894.272511,1634.58933 892.25755,1637.26848 C895.039398,1635.77364 898.904703,1632.25252 900.299967,1627.4276 L900.407613,1627.03355 C900.467761,1626.85293 901.309834,1624.234 901.369982,1624.14369 L901.397051,1624.54802 C901.510575,1626.37513 901.625055,1629.86544 901.43013,1630.64588 C901.400056,1635.25159 902.422573,1636.06437 904.798422,1636.60622 C907.685529,1637.26848 910.121526,1637.17817 912.196634,1635.52252 Z M906.151753,1613.96897 C906.663012,1614.60113 906.933678,1615.3838 907.414863,1616.13637 L907.595307,1616.22667 C908.43738,1616.16854 909.36356,1613.86542 908.857985,1612.86671 L908.798268,1612.76486 C908.407306,1611.92198 905.550273,1611.59085 904.978866,1611.83168 C904.55783,1612.01229 905.851013,1613.57763 906.151753,1613.96897 Z M901.550426,1613.90876 L901.550426,1614.08938 L900.708354,1614.02917 L900.618131,1613.90876 L900.888798,1612.52404 C900.948946,1612.19291 901.009094,1612.28322 901.099316,1612.16281 C901.490278,1612.22301 901.460204,1612.25311 901.791019,1612.37352 L901.791844,1612.75631 C901.789534,1613.20116 901.760945,1613.6278 901.550426,1613.90876 Z M903.084202,1631.45865 L903.174424,1632.81327 L902.903758,1632.81327 C902.84361,1632.63266 902.873684,1632.63266 902.813536,1632.57245 L902.812051,1632.28092 C902.812051,1631.97337 902.830244,1631.77306 902.99398,1631.60917 C903.024054,1631.45865 903.024054,1631.51886 903.084202,1631.45865 Z M905.460051,1634.98067 L905.460051,1635.16129 C904.828496,1635.07098 904.7082,1634.76995 904.257089,1634.58933 L904.257089,1634.31841 C904.678126,1634.49903 905.039014,1634.73985 905.460051,1634.98067 Z M922.933063,1631.33824 C928.64713,1630.70608 930.030535,1628.80961 931.504163,1626.04016 C931.955273,1624.11359 931.744755,1622.30742 932.015421,1621.94619 L932.315546,1621.86843 C932.596437,1621.80102 933.007864,1621.71695 933.248457,1621.73547 C932.917642,1623.99318 932.887568,1628.7193 933.519123,1629.98362 C934.39127,1631.81988 937.909932,1631.33824 940.887261,1630.58567 L941.300598,1630.20325 C941.51641,1630.00529 941.747378,1629.803 942,1629.62239 C941.939852,1629.29126 940.345928,1626.10037 940.075262,1625.58862 C939.594077,1628.08715 938.210672,1629.38156 936.285934,1628.629 C935.834823,1627.21417 935.925045,1622.39773 936.165638,1621.22373 C937.518969,1621.31403 939.323411,1620.9829 940.255706,1621.49465 C940.947409,1621.52475 941.127853,1621.46455 941.609038,1621.22373 C941.639112,1619.71859 940.766965,1619.44766 940.165484,1618.48438 C938.090376,1618.84561 936.436304,1619.50787 934.661936,1619.44766 C934.601788,1618.93592 934.511566,1616.34708 934.722084,1616.04606 C935.864897,1615.20318 938.210672,1616.01595 939.413633,1615.444 C939.503855,1613.81846 938.060302,1613.2164 937.940006,1612.94548 C936.616748,1612.94548 935.624305,1613.36691 934.601788,1613.72815 C934.511566,1613.39702 934.571714,1612.85517 934.661936,1612.52404 L934.783758,1612.13971 C935.145507,1611.03317 935.263417,1610.90996 934.69201,1609.875 L934.182807,1609.71182 C933.477115,1609.49643 932.762976,1609.36182 931.083126,1609.48366 L930.271127,1609.57397 C930.451572,1610.35664 931.1132,1610.41685 931.383867,1611.13931 C931.143274,1613.03578 931.413941,1612.64445 931.26357,1614.51082 C930.241053,1615.14298 929.128314,1615.14298 928.075723,1615.17308 C928.075723,1615.11287 928.105797,1615.05267 928.135871,1614.99246 C928.015575,1614.99246 929.940313,1611.50055 928.737352,1610.56736 C928.406537,1610.50716 925.639726,1610.77808 925.158542,1611.10921 C925.278838,1611.62096 925.459282,1611.83168 925.820171,1611.98219 C926.692318,1612.76486 924.045803,1620.07982 923.564618,1620.14003 C924.346543,1620.10992 925.820171,1619.14664 927.023132,1617.28027 C928.165945,1617.28027 930.180905,1617.09965 931.143274,1617.03945 C931.26357,1617.25017 931.26357,1618.7854 931.444015,1619.02623 C931.594385,1619.11653 931.474089,1619.8089 931.233496,1620.07982 C930.210979,1620.80229 925.820171,1620.62167 923.80521,1620.83239 C924.226247,1621.85588 924.887876,1622.0967 925.489356,1623.05999 L925.702094,1623.04175 C926.411987,1622.96456 928.526833,1622.66866 928.526833,1622.66866 C928.737352,1623.09009 928.376463,1625.55852 928.135871,1625.97996 C927.23365,1628.50858 924.647283,1630.43516 922.933063,1631.33824 Z M919.745216,1616.28688 C920.256475,1615.92565 920.677511,1614.39041 920.647437,1612.64445 C919.594846,1611.92198 916.797961,1611.35003 915.204037,1611.28983 L915.974056,1612.36029 C917.11993,1613.93616 918.085837,1615.12173 919.745216,1616.28688 Z M927.865205,1612.52404 C927.968316,1612.57564 927.938855,1612.58302 927.909395,1612.6599 L927.865205,1612.79496 L927.746445,1612.72433 C927.702159,1612.6952 927.799589,1612.72107 927.865205,1612.52404 Z M918.963291,1613.1863 C919.053513,1613.27661 919.143735,1613.54753 919.203883,1613.63784 L919.203883,1613.99907 L919.017184,1613.80184 C918.847807,1613.61978 918.963291,1613.69202 918.963291,1613.1863 Z M937.458821,1632.54235 L937.865877,1632.40501 C938.924092,1632.03908 940.882031,1631.32777 941.248149,1631.45865 C941.398519,1632.96379 939.864744,1637.11796 939.473781,1636.84704 C939.323411,1636.93735 931.293644,1637.20827 929.820017,1636.87714 C924.767579,1636.69653 920.827881,1633.74646 920.677511,1633.71636 C919.62492,1633.47553 916.016036,1636.60622 916.04611,1636.99755 L915.626483,1636.57 C915.224713,1636.15091 914.903297,1635.71066 914.903297,1634.83016 C915.715296,1632.96379 919.534698,1632.72297 919.62492,1631.00711 C918.632477,1630.07393 918.482107,1628.6892 917.730256,1627.6055 C917.730256,1626.34119 918.542255,1622.33753 918.542255,1622.30742 C917.549812,1622.54825 916.707739,1623.1202 915.595,1623.1804 L914.98795,1622.57166 C914.595873,1622.1636 914.261717,1621.7154 914.18152,1621.01301 L915.783328,1620.77313 C916.865906,1620.61489 918.14628,1620.43604 918.752773,1620.38085 C919.414402,1620.17013 919.62492,1619.74869 920.106104,1619.23695 C921.63988,1619.17674 922.572175,1619.839 922.572175,1621.25383 C922.090991,1621.79568 920.497067,1625.61872 920.497067,1626.37129 C921.399288,1627.42489 921.850398,1628.53869 922.301509,1630.07393 C922.542101,1631.00711 922.421805,1632.27143 923.083434,1632.69286 C925.098394,1633.89697 934.361196,1633.59594 937.458821,1632.54235 Z" id="海量优选"></path>
        </g>
    </g>
</svg>