<?xml version="1.0" encoding="UTF-8"?>
<svg width="39px" height="34px" viewBox="0 0 39 34" version="1.1" xmlns="http://www.w3.org/2000/svg" xmlns:xlink="http://www.w3.org/1999/xlink">
    <!-- Generator: Sketch 59 (86127) - https://sketch.com -->
    <title>langchaoyun</title>
    <desc>Created with Sketch.</desc>
    <g id="页面-1" stroke="none" stroke-width="1" fill="none" fill-rule="evenodd">
        <g id="字体备份" transform="translate(-863.000000, -1557.000000)" fill="#000000" fill-rule="nonzero">
            <g id="langchaoyun" transform="translate(863.000000, 1557.000000)">
                <path d="M38.9991422,9.63710066 L38.9991422,15.1573938 L17.0142773,15.1573938 C13.6296504,16.170186 11.5600868,25.7922016 17.5539884,28.4300645 L30.9192131,28.4654993 C32.9463468,28.1571496 32.8475636,24.121032 30.9330705,24.2654707 L22.8738945,24.2690142 C19.9163382,24.178605 19.8210854,19.1173098 22.8297159,18.8824956 L30.2131807,18.8842505 L31.3263885,18.9046339 C38.4187168,19.1474462 38.1935017,33.3096976 31.9994602,33.987581 L30.7658584,33.987581 L16.9674922,34 C16.3194957,33.9539011 14.9732863,33.3974408 14.2092179,32.7877946 C6.25832731,26.4585096 8.39981716,15.022708 14.1364338,10.9679956 C14.712504,10.5603949 15.615212,9.69821715 17.1606704,9.63710066 L39,9.63710066 L38.9991422,9.63710066 Z M35.4958699,0 C36.0009046,0 36.4123692,0.482958572 36.4123692,1.0721876 L36.4123692,4.61032908 C36.4123692,5.20046929 36.0009046,5.68427154 35.4958369,5.68427154 L10.887807,5.68427154 C10.3810236,5.68427154 9.97041682,5.20046929 9.97041682,4.61032908 L9.97041682,1.07303129 C9.97041682,0.482924825 10.3810566,0 10.88784,0 L35.4958699,0 L35.4958699,0 Z M1.96581244,15.1166269 C-0.774315317,14.6753464 -0.533461222,9.94011827 1.96581244,9.6238042 L12.0962676,9.6238042 C10.3090973,10.7757031 8.93777963,12.548756 8.11478449,15.1449747 L1.96581244,15.1166269 L1.96581244,15.1166269 Z" id="形状"></path>
            </g>
        </g>
    </g>
</svg>