<?xml version="1.0" encoding="UTF-8"?>
<svg width="119px" height="29px" viewBox="0 0 119 29" version="1.1" xmlns="http://www.w3.org/2000/svg" xmlns:xlink="http://www.w3.org/1999/xlink">
    <!-- Generator: Sketch 59 (86127) - https://sketch.com -->
    <title>爆款更新</title>
    <desc>Created with Sketch.</desc>
    <g id="页面-1" stroke="none" stroke-width="1" fill="none" fill-rule="evenodd">
        <g id="字体备份" transform="translate(-1125.000000, -1609.000000)" fill="#000000" fill-rule="nonzero">
            <path d="M1146.52928,1625.80345 C1147.58022,1625.77296 1151.75396,1626.3218 1151.99418,1626.10836 C1152.11428,1625.9864 1152.20436,1625.77296 1152.3545,1625.6205 C1152.08426,1624.70576 1151.39364,1623.88249 1150.85315,1623.66905 C1150.7931,1623.60807 1146.85958,1624.18741 1146.67942,1624.24839 L1146.8896,1623.1507 C1148.30087,1623.05923 1149.41186,1622.90677 1150.91321,1622.7848 L1151.1234,1622.7848 C1151.1234,1620.10156 1149.05154,1621.32122 1146.94966,1621.56515 L1146.94966,1620.86385 L1147.89803,1620.7892 C1149.16925,1620.6809 1150.43278,1620.51015 1151.27353,1619.94911 L1151.27353,1619.36977 C1150.94324,1619.00387 1150.7931,1618.5465 1150.25262,1618.36355 C1149.77219,1618.08913 1147.97057,1618.97338 1147.03974,1619.00387 L1147.04449,1618.62601 C1147.04537,1618.39643 1147.03599,1618.16536 1146.97969,1618.08913 C1146.70944,1617.63176 1144.8778,1617.60127 1143.82686,1617.78422 C1144.30729,1618.15012 1144.48745,1618.63798 1144.54751,1619.00387 L1144.54751,1619.58321 C1143.73678,1619.70518 1142.92605,1619.91861 1142.14536,1620.04058 C1142.17538,1619.49174 1142.4156,1619.15633 1142.20541,1618.85142 C1141.84509,1618.33306 1141.39468,1618.51601 1139.86331,1618.30257 L1139.20272,1618.39405 C1139.44294,1618.79043 1139.44294,1619.21731 1139.65312,1620.65041 L1138.55323,1620.85711 C1137.62638,1621.02006 1136.47027,1621.17852 1136.47027,1620.92483 C1136.29011,1621.26024 1136.77054,1622.23596 1137.34105,1622.66284 C1137.7314,1622.93726 1138.0617,1623.05923 1138.72229,1622.47989 C1138.81237,1622.54087 1139.38288,1622.47989 1139.77323,1622.47989 C1139.77323,1622.69333 1139.83329,1622.8153 1139.83329,1622.96775 L1139.57599,1623.07026 C1138.57653,1623.44939 1136.60735,1623.9965 1135.83971,1623.27267 C1135.50941,1623.33365 1135.95982,1624.06544 1135.89976,1624.30937 C1136.23006,1625.04117 1135.95982,1624.85822 1136.56035,1625.04117 C1137.31103,1625.46805 1138.93248,1624.24839 1140.04347,1624.5838 L1140.09874,1625.20231 C1140.10948,1625.35112 1140.11445,1625.46805 1140.10353,1625.46805 L1139.76445,1625.5442 C1138.66107,1625.80674 1136.44815,1626.4213 1135.74963,1626.23033 C1135.53944,1626.10836 1135.02898,1625.89492 1134.57858,1625.95591 C1134.63863,1627.48048 1134.99896,1627.63293 1135.74963,1628.33423 C1137.07081,1628.30374 1138.90245,1627.78539 1139.47296,1627.389 C1138.90245,1628.66964 1137.16089,1630.83453 1135.29922,1632.51155 C1135.62952,1631.47485 1135.74963,1630.25519 1135.59949,1629.73684 C1135.32925,1629.00504 1132.20645,1627.66342 1131.78608,1627.17556 L1131.89976,1624.57129 C1131.96772,1623.16802 1132.06967,1621.6905 1132.23648,1621.35171 C1133.43756,1619.09535 1135.62952,1619.09535 1136.41022,1616.38162 L1135.88616,1615.82896 C1135.25418,1615.18292 1134.33086,1614.39968 1133.40753,1614.76557 C1133.40753,1617.32685 1131.96624,1619.82714 1131.96624,1619.82714 L1132.07509,1618.96957 C1132.1464,1618.43978 1132.25149,1617.70799 1132.38662,1616.89997 C1132.44667,1615.83277 1132.44667,1614.70459 1132.44667,1613.6069 C1132.65686,1612.23479 1132.53675,1610.34432 1132.11637,1609.42958 C1130.85524,1609.12467 1128.93352,1609.18565 1128.09277,1609.79548 C1128.1228,1610.71022 1128.60323,1610.58825 1129.29385,1611.71644 C1130.46489,1617.69274 1129.08366,1633.33482 1125.18016,1638 C1127.73245,1636.9328 1130.55498,1632.3286 1131.24559,1628.39522 C1132.23648,1630.74305 1132.80699,1631.23091 1133.76785,1633.79219 C1133.91799,1633.79219 1133.97804,1634.00563 1134.1582,1634.1276 C1134.57858,1634.00563 1134.9389,1633.48728 1135.17912,1632.84696 C1136.47027,1632.57254 1138.54213,1631.41386 1139.47296,1630.31617 C1140.28369,1630.86502 1141.6349,1631.38337 1142.4156,1631.81025 L1142.59576,1631.01748 C1142.50568,1631.01748 1142.74589,1630.28568 1142.71587,1630.13323 C1142.44562,1629.49291 1140.94428,1629.76733 1140.16358,1630.01126 C1140.61398,1629.34045 1142.26546,1627.96834 1142.59576,1627.20605 L1142.68584,1627.14507 L1142.74716,1629.09324 C1142.80545,1631.34507 1142.85508,1634.5323 1142.74589,1635.04234 C1142.20541,1635.31676 1141.09441,1635.19479 1140.43382,1635.43872 C1140.5239,1635.68266 1143.49657,1637.6341 1143.82686,1637.72558 C1144.93786,1638.64032 1145.14805,1636.84133 1145.53839,1635.25578 C1145.5094,1635.31466 1145.42443,1631.36564 1145.44563,1630.87367 L1145.59845,1628.39522 C1145.50837,1627.84637 1145.62848,1627.389 1145.35823,1626.96212 L1144.98707,1626.93191 C1144.26559,1626.88251 1143.10622,1626.84016 1142.65581,1626.84016 L1142.65581,1626.87065 C1142.50568,1626.74868 1142.47565,1626.93163 1142.59576,1626.44377 C1143.13624,1626.19984 1144.24724,1626.38279 1144.8778,1626.16935 C1146.04885,1627.26704 1146.97969,1628.70013 1148.21079,1629.24898 C1147.00971,1630.62109 1146.61936,1630.52961 1145.59845,1632.05418 C1144.84778,1632.29811 1149.05154,1631.6273 1149.32178,1631.38337 C1150.10248,1631.07846 1149.05154,1630.13323 1149.41186,1629.76733 C1149.95235,1630.2247 1150.82313,1630.5601 1151.1234,1630.62109 C1152.26442,1630.5906 1153.04512,1629.12701 1153.5856,1628.30374 C1151.2435,1627.29753 1148.27084,1627.32802 1146.52928,1625.80345 Z M1137.61129,1614.39968 C1137.7314,1615.25343 1137.61129,1616.71702 1137.85151,1617.63176 C1138.48207,1617.8452 1138.60218,1618.39405 1139.71318,1617.63176 C1141.12444,1617.60127 1144.66761,1616.56456 1146.10891,1617.11341 L1146.36617,1617.20963 C1147.00437,1617.43689 1148.1147,1617.75576 1148.66119,1617.57078 C1149.38184,1617.08292 1148.75127,1616.16818 1149.08157,1615.28393 C1149.26173,1614.46066 1149.98237,1612.26528 1150.22259,1611.56398 C1150.70302,1610.00892 1149.35181,1609.97843 1148.90141,1609.3686 L1148.02951,1609.37241 C1145.33673,1609.39683 1139.98676,1609.56849 1138.81237,1610.67973 C1138.60218,1610.67973 1136.68046,1609.97843 1136.59038,1609.97843 C1136.68046,1610.7712 1136.9507,1611.1371 1137.16089,1611.71644 L1137.39735,1613.03519 C1137.47617,1613.48493 1137.55124,1613.94231 1137.61129,1614.39968 Z M1146.7695,1610.92366 C1146.8896,1611.22857 1146.91963,1611.56398 1146.8896,1612.26528 C1144.78772,1612.23479 1140.61398,1612.84462 1139.80326,1613.39346 C1139.80326,1613.11904 1139.56304,1612.29577 1139.47296,1612.14331 C1139.59307,1611.56398 1146.31909,1610.71022 1146.7695,1610.92366 Z M1146.22901,1615.22294 C1144.72767,1615.61933 1141.15447,1615.86326 1139.71318,1616.29014 C1139.71318,1615.92424 1139.77323,1615.34491 1139.89334,1615.13147 C1139.98342,1614.46066 1144.57753,1614.39968 1146.70944,1614.03378 C1146.58934,1614.61312 1146.4392,1615.07049 1146.22901,1615.22294 Z M1148.18076,1614.85705 L1148.24081,1614.85705 C1148.21079,1614.88754 1148.18076,1614.94852 1148.18076,1614.97901 L1148.18076,1615.03999 C1147.91052,1614.88754 1148.0006,1615.07049 1147.94055,1614.76557 C1148.09068,1614.79606 1148.0006,1614.79606 1148.18076,1614.85705 Z M1126.41126,1624.85822 C1129.20376,1624.73625 1128.63325,1618.05864 1127.73245,1615.71081 C1127.64237,1615.64982 1127.49223,1615.55835 1127.43218,1615.55835 C1126.65148,1618.18061 1126.47132,1619.88812 1125,1621.56515 C1125.06005,1622.8153 1125.7807,1624.30937 1126.41126,1624.85822 Z M1144.45743,1621.13827 L1144.45743,1621.99203 L1144.31666,1622.03911 C1144.00342,1622.13473 1143.24434,1622.33963 1142.71587,1622.38842 C1142.68584,1622.0835 1142.62579,1621.80908 1142.59576,1621.50417 C1143.28638,1621.3822 1143.58665,1621.13827 1144.45743,1621.13827 Z M1144.27727,1624.73625 C1143.82686,1624.79723 1142.98611,1624.79723 1142.53571,1624.82773 L1142.53793,1624.57137 C1142.54238,1624.39746 1142.55572,1624.22806 1142.59576,1624.12642 C1142.98611,1623.852 1143.61667,1623.852 1144.33732,1623.852 C1144.30729,1623.852 1144.24724,1624.73625 1144.27727,1624.73625 Z M1136.0499,1634.31054 C1136.0499,1635.62167 1136.47027,1636.01806 1137.04078,1636.71936 C1137.97162,1636.68887 1140.58396,1634.31054 1141.75501,1632.60303 C1142.02525,1632.3286 1135.7196,1634.34104 1136.0499,1634.31054 Z M1145.95877,1632.60303 C1147.64028,1633.79219 1148.54108,1636.07904 1149.92232,1637.6341 L1150.55289,1637.6341 L1150.78716,1637.25111 C1151.41543,1636.25 1151.735,1635.9298 1151.5738,1635.43872 C1151.30356,1634.64595 1149.32178,1633.48728 1145.95877,1632.60303 Z M1137.40111,1635.59118 C1137.43113,1635.54036 1137.45115,1635.5031 1137.4645,1635.47599 L1137.40111,1635.59118 Z M1169.64999,1621.0468 C1170.16045,1620.61992 1170.64088,1619.79665 1171.12131,1619.18682 L1171.38803,1618.75744 C1171.93156,1617.86283 1171.98083,1617.63938 1172.74276,1616.41211 C1172.95295,1616.41211 1172.98297,1616.47309 1173.16314,1616.71702 C1173.73365,1616.65604 1177.8173,1615.43638 1178.89827,1615.40589 C1178.9283,1616.10719 1178.62803,1618.63798 1178.4779,1619.18682 L1178.53795,1620.25402 C1179.04841,1619.91861 1181.63072,1616.22916 1181.96102,1615.7413 C1182.08112,1615.49737 1181.99104,1614.88754 1181.96102,1614.39968 C1181.60069,1613.94231 1181.30042,1613.51543 1181.00015,1613.08855 C1180.54975,1612.60069 1180.12938,1612.47872 1179.709,1611.99086 C1179.13849,1612.17381 1178.86825,1612.9056 1178.38782,1613.18002 C1177.6972,1613.39346 1177.03661,1613.241 1176.28593,1613.45444 C1175.83553,1613.63739 1173.82373,1614.12525 1173.22319,1614.27771 L1173.04303,1614.3082 C1173.22319,1612.99707 1174.5744,1612.84462 1174.2441,1611.1371 C1173.7937,1610.4358 1172.38244,1609.88695 1171.75187,1609.49056 C1171.30147,1609.46007 1171.0012,1609.39909 1170.52077,1609.3686 L1170.32322,1609.3911 C1170.18597,1609.41373 1170.09138,1609.46922 1170.07037,1609.704 C1170.07037,1610.22236 1170.5508,1610.83219 1170.6709,1611.16759 C1170.91112,1611.8384 1170.76098,1612.9056 1170.64088,1613.39346 L1170.58835,1613.94564 C1170.30693,1616.68167 1169.64999,1620.30517 1169.64999,1621.0468 Z M1158.02958,1616.4426 C1159.32074,1616.41211 1160.13146,1616.13768 1161.60278,1616.13768 L1161.598,1616.78527 C1161.59861,1617.1583 1161.61029,1617.55553 1161.66284,1617.66225 C1161.72289,1617.99766 1161.72289,1618.42454 1161.57276,1618.63798 C1160.2816,1618.57699 1158.44996,1619.30879 1157.39902,1618.45503 C1156.19794,1619.03437 1158.29982,1620.16255 1158.99044,1621.22974 C1159.23066,1620.77237 1168.14864,1619.9796 1168.59905,1620.16255 C1168.59905,1619.00387 1167.72827,1618.57699 1167.15776,1617.96717 C1166.16687,1618.02815 1165.53631,1618.02815 1164.51539,1618.15012 C1164.78563,1617.38783 1164.54542,1616.13768 1164.54542,1615.61933 C1165.05587,1615.52786 1168.92934,1615.31442 1169.04945,1615.19245 L1169.28967,1614.88754 C1169.28967,1613.51543 1168.6591,1613.30199 1168.02854,1612.60069 L1167.05642,1612.86606 C1166.16124,1613.10189 1165.46874,1613.25625 1164.72558,1613.39346 L1164.72558,1613.2715 C1164.45534,1612.78363 1164.72558,1611.62496 1164.72558,1610.61875 C1164.54542,1610.46629 1164.45534,1610.25285 1164.33523,1610.10039 L1164.1269,1610.04734 C1163.33277,1609.85335 1161.34827,1609.45136 1160.64192,1609.94794 C1160.34165,1610.0699 1160.31163,1610.22236 1160.19152,1610.58825 C1160.45425,1610.80169 1160.73998,1611.03848 1160.96823,1611.4416 L1161.16667,1611.82715 C1161.28806,1612.08158 1161.38926,1612.38725 1161.27249,1612.60069 L1161.48267,1613.88132 C1160.52181,1613.88132 1158.11966,1614.24722 1156.85853,1613.69837 C1156.52824,1613.69837 1156.28802,1613.72887 1156.04781,1613.78985 C1156.01778,1614.03378 1157.33896,1615.80228 1158.02958,1616.4426 Z M1178.598,1629.55389 L1177.17116,1626.46954 C1176.85198,1625.7673 1176.5826,1625.15215 1176.49612,1624.88871 C1176.34599,1624.67527 1176.34599,1624.27888 1176.22588,1624.09593 C1176.31596,1622.51038 1177.72722,1619.00387 1177.03661,1617.81471 C1176.5862,1614.97901 1174.00389,1617.72324 1173.4634,1617.54029 C1174.15402,1618.11962 1173.73365,1622.38842 1173.25322,1624.09593 C1173.37332,1628.02932 1169.28967,1636.10953 1167.51808,1638 C1168.92934,1638 1173.16314,1633.97514 1174.36421,1631.04797 L1174.47458,1630.74033 C1174.84519,1629.65691 1175.39371,1627.62858 1175.47521,1627.29753 C1175.74545,1628.18178 1176.43607,1629.12701 1176.28593,1629.95028 C1176.98656,1631.88546 1177.19021,1633.42223 1178.0687,1635.0068 L1178.26771,1635.34725 C1178.9283,1636.44494 1179.31865,1637.75607 1180.75994,1637.75607 C1180.91007,1637.48165 1183.64252,1634.98135 1183.67255,1634.98135 C1181.96102,1634.1276 1180.42964,1631.71878 1178.598,1629.55389 Z M1166.88752,1621.16876 C1166.25695,1621.90055 1157.75934,1623.12021 1157.21886,1622.32743 C1157.21886,1623.45561 1157.99956,1624.12642 1158.60009,1624.82773 C1159.86122,1624.64478 1161.33254,1624.06544 1162.47356,1624.00446 C1164.00493,1623.57758 1168.23873,1623.63856 1168.6591,1623.36414 C1168.74918,1622.11399 1167.96848,1621.35171 1166.88752,1621.16876 Z M1165.38617,1627.63293 L1166.74531,1627.4934 C1168.52578,1627.3207 1170.1064,1627.21825 1170.61085,1627.389 C1171.0012,1626.53524 1170.52077,1625.46805 1169.83015,1625.10215 C1169.07948,1624.43134 1167.66821,1625.19362 1166.9776,1625.31559 C1164.54542,1625.65099 1162.14327,1625.77296 1159.68106,1626.16935 C1158.32985,1626.3218 1157.27891,1626.23033 1156.64834,1625.49854 C1156.46818,1627.11458 1157.39902,1627.84637 1158.20974,1628.7916 C1159.29071,1628.91357 1159.44085,1628.33423 1160.2816,1628.15129 L1160.73904,1628.11892 C1161.16677,1628.083 1161.67103,1628.02655 1162.41351,1627.93785 L1162.4423,1628.49878 C1162.53918,1630.17049 1162.77049,1633.09766 1162.50359,1633.63973 C1162.50359,1634.79841 1161.00224,1634.18858 1160.01136,1634.21907 C1160.16149,1634.88988 1161.66284,1635.95708 1161.93308,1636.38396 C1162.80386,1637.2987 1162.41351,1637.72558 1164.00493,1637.72558 L1164.72013,1636.99403 C1165.53361,1636.14348 1165.46499,1635.96851 1165.4162,1633.63973 L1165.4324,1633.47243 C1165.48973,1632.54127 1165.38617,1629.0486 1165.38617,1627.63293 Z M1165.80655,1627.0536 L1165.53631,1627.0536 C1165.68644,1626.90114 1165.68644,1626.90114 1165.80655,1627.0536 Z M1169.64999,1633.63973 C1170.07537,1632.9198 1170.9025,1631.90069 1170.66425,1631.25026 L1170.61085,1631.13944 C1170.40066,1630.49912 1167.8784,1629.67585 1166.22692,1628.88308 L1166.36547,1629.15279 C1167.07707,1630.4935 1168.92313,1633.44101 1169.64999,1633.63973 Z M1161.54273,1631.50534 L1161.36963,1631.12157 C1160.59228,1629.47122 1160.20553,1629.73684 1158.7202,1629.73684 L1158.87937,1629.86666 C1159.20204,1630.1318 1159.18562,1630.17515 1158.87034,1630.89551 C1158.81028,1631.56632 1156.10786,1634.79841 1155.53735,1635.40823 L1155.53735,1635.68266 C1157.1588,1635.1643 1160.07141,1633.21285 1161.54273,1631.50534 Z M1164.75561,1633.02991 L1164.54542,1633.02991 L1164.54542,1632.02369 L1164.75561,1632.02369 L1164.75561,1633.02991 Z M1212.9788,1633.09089 C1207.24366,1633.67022 1202.46938,1632.6945 1198.65597,1631.35288 C1199.55677,1629.73684 1200.15731,1627.7549 1200.39753,1625.25461 C1201.20825,1625.13264 1203.22006,1625.25461 1204.00075,1625.10215 C1204.84151,1625.07166 1205.47207,1625.46805 1206.46296,1626.47426 C1209.13601,1626.35495 1209.13664,1620.89568 1209.75385,1618.26054 L1209.87876,1617.75551 C1210.05209,1617.03065 1210.25064,1616.01136 1210.09621,1615.61933 C1209.58576,1615.07049 1209.01525,1613.91181 1207.00344,1613.72887 C1206.58307,1614.06427 1205.59218,1614.64361 1204.63132,1614.6741 C1204.42113,1614.73508 1201.38842,1614.79606 1201.20825,1614.6741 C1201.11817,1614.52164 1201.1482,1613.08855 1201.17823,1612.50921 L1202.86887,1612.4592 C1205.78207,1612.38575 1208.50139,1612.38527 1209.40015,1612.52317 L1209.49568,1612.5397 C1210.15627,1612.66167 1211.4174,1613.05806 1212.07799,1612.81412 C1212.61847,1612.60069 1212.70855,1612.05184 1212.34823,1611.59447 L1212.245,1611.42378 C1211.85787,1610.76515 1211.04889,1609.29098 1210.06619,1609.42958 C1208.53482,1609.7345 1205.26188,1609.85646 1203.88065,1610.16138 L1191.86989,1610.52727 L1191.48597,1610.50508 C1189.37454,1610.35593 1186.32905,1609.73808 1186.55513,1609.79548 L1186.55665,1609.94123 C1186.57363,1610.52074 1186.75079,1612.64101 1188.47685,1613.11904 C1189.59467,1613.38099 1192.81915,1613.14285 1193.94567,1612.96154 L1194.09188,1612.93609 C1194.54228,1612.84462 1195.80341,1612.75314 1197.42487,1612.66167 L1197.48632,1613.08072 C1197.60135,1613.94106 1197.6565,1614.90061 1197.42487,1615.34491 L1197.42487,1615.55835 C1195.69832,1615.64601 1192.62051,1616.46176 1190.9135,1615.67082 L1190.69884,1615.55835 C1189.91814,1615.10098 1188.56693,1614.97901 1188.32672,1614.85705 C1188.17658,1615.19245 1188.20661,1615.3754 1188.35674,1615.92424 C1188.47685,1617.57078 1188.62699,1619.2478 1188.77712,1620.89434 C1189.25755,1622.14449 1188.83717,1624.85822 1188.98731,1625.37657 C1189.07739,1626.19984 1190.48865,1627.57195 1191.44951,1626.74868 L1191.71788,1626.62291 C1191.99938,1626.48569 1192.29777,1626.31418 1192.41037,1626.10836 C1193.04094,1626.13886 1195.83344,1625.95591 1196.37392,1626.10836 C1196.37392,1627.54146 1196.04363,1628.85259 1195.47312,1630.04175 C1195.32298,1629.95028 1195.20288,1629.88929 1195.05274,1629.82831 L1194.45517,1629.59314 C1191.49413,1628.39567 1190.465,1627.48602 1190.0983,1627.57195 C1190.93906,1629.12701 1191.77981,1629.98077 1192.38035,1630.46863 L1193.34871,1631.2271 C1193.664,1631.47485 1193.97177,1631.71878 1194.27204,1631.96271 C1192.23021,1634.49349 1188.98731,1636.29248 1185.59427,1637.39017 C1189.9782,1637.20722 1193.97177,1636.38396 1196.70422,1633.82268 C1200.24739,1636.41445 1202.94981,1637.54263 1209.43562,1637.93902 C1209.73589,1637.81705 1210.87691,1635.98757 1211.14716,1635.74364 C1211.5375,1635.1643 1213.48925,1633.45679 1212.9788,1633.09089 Z M1191.56962,1612.2043 L1191.23933,1612.2043 L1191.23933,1611.96037 L1191.56962,1611.96037 L1191.56962,1612.2043 Z M1208.26457,1616.22916 L1208.38468,1616.32063 L1208.26457,1616.47309 C1207.48387,1616.35112 1207.30371,1616.01572 1207.00344,1615.46687 C1207.5139,1615.55835 1208.08441,1615.86326 1208.26457,1616.22916 Z M1201.17823,1616.83899 L1202.25675,1616.7531 C1203.60462,1616.65281 1205.63004,1616.546 1206.16269,1616.83899 L1206.19193,1617.25473 C1206.22969,1617.89636 1206.23639,1618.58808 1206.16269,1618.9124 C1205.41202,1619.46124 1201.74874,1618.79043 1200.96804,1619.30879 C1200.96804,1618.15012 1201.17823,1618.02815 1201.17823,1616.83899 Z M1191.68973,1618.45503 L1191.68973,1618.18061 C1193.73156,1618.05864 1195.32298,1617.78422 1197.18465,1617.75373 L1197.15521,1618.18646 C1197.09449,1619.30592 1197.21468,1619.55432 1197.21468,1619.82714 L1193.53701,1620.10396 C1193.00935,1620.14651 1192.55168,1620.18766 1192.26024,1620.22353 C1191.74978,1620.37599 1192.20019,1619.30879 1191.68973,1618.45503 Z M1205.41202,1623.05923 C1204.33105,1623.1507 1201.17823,1623.12021 1200.39753,1623.24217 C1200.54766,1622.8153 1200.48761,1622.05301 1200.57769,1621.53466 C1201.80879,1621.50417 1204.51121,1621.13827 1205.86242,1621.19925 C1205.80237,1621.7481 1205.59218,1622.66284 1205.41202,1623.05923 Z M1192.32029,1624.06544 L1192.08008,1621.83957 C1192.74067,1621.65662 1195.05274,1621.87006 1196.76427,1621.65662 C1196.61414,1622.26645 1196.7943,1623.08972 1196.61414,1623.73004 L1196.20549,1623.76571 C1195.102,1623.852 1193.05595,1623.95872 1192.32029,1624.06544 Z M1218.32358,1615.25343 L1218.41266,1615.25275 C1219.27777,1615.21548 1225.40707,1614.54342 1227.15149,1614.36918 C1228.20243,1614.15575 1229.67375,1614.52164 1230.36437,1614.18624 C1230.36437,1613.18002 1230.66464,1612.66167 1230.21423,1612.2043 C1228.32254,1610.40531 1226.64103,1611.96037 1224.53915,1612.32626 L1224.64677,1611.8023 C1224.80339,1611.00904 1224.97154,1609.91135 1224.65926,1609.39909 C1223.87856,1608.94172 1222.04692,1609.0027 1220.87587,1609.0027 C1221.05603,1609.55155 1222.16702,1611.07612 1222.9177,1612.50921 C1221.38633,1612.66167 1217.42278,1613.72887 1216.46192,1612.47872 C1216.07157,1612.96658 1217.60294,1616.0767 1218.32358,1615.25343 Z M1242.8672,1617.63707 L1242.73545,1617.60127 C1242.04483,1617.32685 1240.66359,1618.63798 1239.2223,1618.72945 C1238.74187,1618.88191 1235.88931,1618.9124 1235.46894,1619.18682 L1235.40601,1617.48951 C1235.36422,1616.1695 1235.38841,1614.75864 1235.85929,1614.15575 C1235.88931,1614.09476 1235.88931,1614.06427 1235.88931,1614.03378 C1238.26144,1613.69837 1240.66359,1612.9056 1242.22499,1611.92987 C1242.7955,1610.4358 1240.54348,1609.03319 1237.78101,1609.0027 C1237.78101,1609.52106 1237.87109,1609.67351 1238.32149,1609.91744 C1238.08128,1611.1371 1233.33703,1613.48493 1231.53542,1613.85083 L1231.50539,1614.06427 C1231.59547,1614.09476 1231.71558,1614.09476 1231.80566,1614.12525 L1231.89265,1614.85469 C1232.75868,1622.66176 1232.11886,1634.98088 1228.74291,1637.84754 C1233.36706,1635.83511 1234.80835,1629.58438 1235.04856,1627.23654 C1235.22872,1625.31559 1235.37886,1623.36414 1235.52899,1621.47368 C1236.0995,1621.47368 1236.18958,1620.89434 1237.45071,1621.32122 L1237.49018,1621.5671 C1237.59881,1622.35426 1237.78192,1624.54499 1237.57082,1628.24276 L1237.55417,1628.70451 C1237.493,1630.85662 1237.56868,1634.85285 1237.54079,1635.95708 L1237.68441,1636.10056 C1238.7102,1637.16273 1239.6647,1638.87205 1240.7837,1635.98757 C1241.71453,1633.33482 1240.60354,1628.66964 1240.60354,1625.2851 C1240.60354,1623.97397 1241.11399,1621.10778 1240.69362,1620.65041 C1241.05394,1620.13205 1243.69631,1620.61992 1243.93652,1620.40648 C1244.16582,1619.18405 1243.76585,1617.93384 1242.8672,1617.63707 L1242.8672,1617.63707 Z M1238.892,1610.74071 L1239.28235,1610.80169 L1239.25233,1611.01513 C1238.83195,1610.89317 1238.86198,1611.07612 1238.892,1610.74071 Z M1226.22066,1627.17556 C1227.15149,1626.96212 1229.82388,1627.17556 1230.42442,1626.74868 C1230.48447,1625.37657 1229.46356,1624.61429 1228.71289,1623.91298 C1227.90216,1624.06544 1226.37079,1624.73625 1226.07052,1624.67527 C1225.98044,1624.2179 1225.92039,1622.66284 1225.43996,1622.29694 C1226.22066,1622.0835 1229.97402,1622.54087 1230.9649,1622.26645 C1231.2952,1622.20547 1231.17509,1621.3822 1231.32523,1621.22974 L1231.31339,1621.0148 C1231.28506,1620.6042 1231.21913,1620.50202 1230.72469,1619.73567 C1229.22334,1619.49174 1227.15149,1619.64419 1226.34076,1620.07107 L1227.23471,1619.26472 C1229.57749,1617.12341 1229.70531,1616.73891 1230.24426,1615.86326 C1229.19332,1615.0095 1227.09144,1614.64361 1225.80028,1615.31442 C1225.83031,1615.89375 1226.10055,1616.01572 1226.40082,1616.29014 C1225.68017,1617.99766 1225.53004,1618.9124 1225.16971,1620.13205 L1224.06984,1620.42222 C1221.70829,1621.03322 1217.56916,1622.00442 1216.25173,1621.41269 C1215.95146,1621.22974 1217.06245,1623.02874 1217.48283,1623.60807 C1217.96326,1623.91298 1221.50643,1623.27267 1222.16702,1622.93726 L1222.40829,1622.94011 C1222.59475,1622.94722 1222.74183,1622.97211 1222.82762,1623.05923 L1222.82762,1625.46805 L1222.66159,1625.5199 C1222.36211,1625.60661 1222.1139,1625.6463 1222.31716,1625.6205 C1221.32627,1626.01689 1218.65388,1626.23033 1217.06245,1625.68148 C1217.03243,1626.47426 1218.29356,1627.66342 1218.86407,1628.42571 C1220.48552,1628.42571 1220.99598,1627.99883 1222.73754,1628.02932 L1222.75017,1628.16455 C1222.80075,1628.95314 1222.94772,1632.93942 1222.94772,1633.51777 C1222.94772,1635.04234 1220.9059,1634.463 1220.09517,1635.10332 C1222.22708,1636.17052 1223.3681,1637.75607 1224.38901,1637.75607 C1225.07963,1637.17673 1225.68017,1636.44494 1225.95041,1635.43872 L1225.94765,1635.39505 C1225.94073,1634.85207 1226.12757,1629.44107 1226.07052,1630.19421 L1226.1606,1628.60866 L1226.13782,1628.81853 C1226.13697,1628.75975 1226.26999,1627.17556 1226.22066,1627.17556 Z M1218.62385,1617.60127 C1219.61474,1618.48552 1220.06514,1619.70518 1221.17614,1620.43697 C1222.07694,1620.40648 1222.07694,1620.04058 1222.40724,1619.55272 L1222.40724,1617.60127 C1222.25711,1616.99144 1218.86407,1616.19867 1217.84315,1616.19867 L1218.19235,1616.88077 C1218.35695,1617.19472 1218.42367,1617.29636 1218.62385,1617.60127 Z M1224.53915,1624.79723 C1224.50912,1624.82773 1224.41904,1624.82773 1224.38901,1624.85822 L1224.369,1624.71592 C1224.36232,1624.65494 1224.369,1624.63461 1224.38901,1624.49232 L1224.49759,1624.52013 C1224.53795,1624.53257 1224.56317,1624.54721 1224.5992,1624.5838 C1224.53915,1624.73625 1224.5992,1624.67527 1224.53915,1624.79723 Z M1229.34345,1633.63973 C1229.52361,1633.67022 1229.52361,1633.67022 1229.61369,1633.57875 C1230.24426,1633.18236 1230.48447,1632.14566 1231.08501,1631.56632 C1231.26517,1630.2247 1228.47267,1628.57817 1227.722,1628.33423 L1228.08232,1629.95028 C1228.02227,1630.74305 1229.04318,1632.6945 1229.34345,1633.63973 Z M1221.026,1631.68829 C1220.78579,1632.05418 1220.54557,1632.42008 1220.27533,1632.78597 C1219.0142,1634.24956 1216.82224,1635.68266 1215.50105,1635.49971 C1217.15253,1633.51777 1218.35361,1631.44435 1218.65388,1629.5234 C1218.98417,1629.49291 1219.13431,1629.49291 1219.37452,1629.58438 L1219.64249,1629.78093 C1220.19505,1630.2023 1220.8201,1630.79968 1221.026,1631.68829 Z" id="爆款更新"></path>
        </g>
    </g>
</svg>