<?xml version="1.0" encoding="UTF-8"?>
<svg width="36px" height="40px" viewBox="0 0 36 40" version="1.1" xmlns="http://www.w3.org/2000/svg" xmlns:xlink="http://www.w3.org/1999/xlink">
    <!-- Generator: Sketch 59 (86127) - https://sketch.com -->
    <title>hot</title>
    <desc>Created with Sketch.</desc>
    <g id="页面-1" stroke="none" stroke-width="1" fill="none" fill-rule="evenodd">
        <g id="字体备份" transform="translate(-1166.000000, -1554.000000)" fill="#000000" fill-rule="nonzero">
            <g id="hot" transform="translate(1166.000000, 1554.000000)">
                <path d="M9.96012498,0 C15.3212379,1.58574603 19.3233222,4.06865287 21.972378,7.45729213 C24.6214338,10.840217 25.152445,15.0660159 23.5774118,20.1318315 C25.1584451,19.0660959 26.2594683,17.7546411 26.8774813,16.1888955 C27.4954943,14.6288643 27.6874984,12.6745394 27.4534934,10.3316354 C34.7046462,16.1260371 37.3417017,22.3604476 35.3646601,29.0348669 C34.1076336,33.2835234 28.2215096,39.6550795 18.696309,39.9836575 C9.03610552,40.3208071 0.515926063,35.4292806 0.0209156371,26.4291005 C-0.471094726,17.4317775 7.86008075,14.326001 9.96012498,9.37733056 C11.3611545,6.08012171 11.3611545,2.95434485 9.96012498,0 Z M15.0542323,6.64584732 C14.8379921,8.10345304 14.4318538,9.5297108 13.8452068,10.8916466 C13.2721947,12.240245 12.4591776,13.4316974 11.3251537,14.7260091 L10.7251411,15.3831651 L10.1581292,15.9774627 L7.70407746,18.4632267 C5.01302078,21.3032836 4.04400037,23.280466 4.20900385,26.2205249 C4.5390108,32.3120754 10.3531333,36.2550114 18.5463058,35.9692914 C24.9724412,35.7464298 30.2105515,31.7234922 31.3325751,27.9377021 C32.1635926,25.1262172 31.9055872,22.423306 30.4415564,19.7289663 L30.0815488,19.1089539 L29.7035408,19.7289663 C27.1714875,23.023318 24.3304277,25.3290784 21.1803613,26.6462477 L20.7723527,26.7062489 C20.0141773,26.8169398 19.245776,26.5789155 18.7010417,26.0646278 C18.1563074,25.5503401 17.8996876,24.8206344 18.0092945,24.0976252 L18.081296,23.7690472 L19.5603272,18.9832371 L19.7703316,18.2603655 C20.7273518,14.7060087 20.2983427,12.0145262 18.6183073,9.86591177 C17.6255637,8.61212089 16.4211683,7.52397577 15.0542323,6.64584732 L15.0542323,6.64584732 Z" id="形状"></path>
            </g>
        </g>
    </g>
</svg>