<?xml version="1.0" encoding="UTF-8"?>
<svg width="20px" height="14px" viewBox="0 0 20 14" version="1.1" xmlns="http://www.w3.org/2000/svg" xmlns:xlink="http://www.w3.org/1999/xlink">
    <!-- Generator: Sketch 59 (86127) - https://sketch.com -->
    <title>路径</title>
    <desc>Created with Sketch.</desc>
    <g id="页面-1" stroke="none" stroke-width="1" fill="none" fill-rule="evenodd">
        <g id="Apple-TV" transform="translate(-932.000000, -2228.000000)" fill-rule="nonzero">
            <g id="勾-copy-4" transform="translate(932.000000, 2223.000000)">
                <rect id="矩形" fill="#000000" opacity="0" x="0" y="0" width="20" height="20"></rect>
                <path d="M19.3185907,5.65840741 C18.8825589,5.23684361 18.2910877,5 17.6743453,5 C17.0576029,5 16.4661317,5.23684361 16.0300999,5.65840741 L7.26020057,14.136267 L3.97038077,10.9574978 C3.53433102,10.535803 2.94276488,10.2988763 2.3259139,10.2988763 C1.70906292,10.2988763 1.11749678,10.535803 0.681447021,10.9574978 C0.245137795,11.3789419 0,11.9506932 0,12.5468824 C0,13.1430716 0.245137795,13.714823 0.681447021,14.136267 L5.06595368,18.3739123 C5.66269315,18.9502355 6.49555893,19.1099446 7.25842851,18.9296831 C8.02307017,19.1099446 8.85549294,18.9502355 9.45267542,18.3739123 L19.3181477,8.83717659 C19.7546243,8.41584515 20,7.84410485 20,7.24788074 C20,6.65165663 19.7549499,6.07985248 19.3185907,5.65840741 L19.3185907,5.65840741 Z" id="路径" fill="#26BD5A"></path>
            </g>
        </g>
    </g>
</svg>