<?xml version="1.0" encoding="UTF-8"?>
<svg width="49px" height="46px" viewBox="0 0 49 46" version="1.1" xmlns="http://www.w3.org/2000/svg" xmlns:xlink="http://www.w3.org/1999/xlink">
    <!-- Generator: Sketch 59 (86127) - https://sketch.com -->
    <title>编组 18</title>
    <desc>Created with Sketch.</desc>
    <g id="页面-1" stroke="none" stroke-width="1" fill="none" fill-rule="evenodd">
        <g id="企业会员页" transform="translate(-1095.000000, -206.000000)">
            <g id="编组-18" transform="translate(1096.000000, 206.000000)">
                <circle id="椭圆形备份-2" fill="#FFF0B3" opacity="0.200000003" cx="25" cy="23" r="23"></circle>
                <g id="编组-15" transform="translate(0.000000, 6.000000)" stroke="#FFF0B3" stroke-width="2">
                    <path d="M19.0327273,3 C21.794151,3 24.0327273,5.23857625 24.0327273,8 L24.0327818,20.0725562 C22.1699349,19.1898371 20.6526754,18.0073123 19.4810031,16.5249818 C17.8258307,18.6190082 15.4810031,20.1147413 12.4465204,21.0121812 C12.4465204,24.7608287 12.6470688,28.2920002 15.0027987,31.0000908 L5.03272727,30.9999722 C2.27130352,30.9999722 0.0327272727,28.7613959 0.0327272727,25.9999722 L0.0327272727,8 C0.0327272727,5.28914319 2.19006897,3.08216053 4.88156296,3.00224142 C4.8495391,3.14566953 4.83272727,3.29309368 4.83272727,3.44444444 L4.83272727,3.44444444 L4.83272727,4.11111111 C4.83272727,5.21568061 5.72815777,6.11111111 6.83272727,6.11111111 L6.83272727,6.11111111 L16.4327273,6.11111111 C17.5372968,6.11111111 18.4327273,5.21568061 18.4327273,4.11111111 L18.4327273,4.11111111 L18.4327273,3.44444444 C18.4327273,3.29200221 18.4156721,3.14354343 18.3833658,3.00087214 L19.0327273,3 Z" id="形状结合" stroke-linejoin="round"></path>
                    <rect id="矩形" x="5.01818182" y="0" width="13" height="5" rx="2"></rect>
                    <line x1="5.01818182" y1="11" x2="19.0181818" y2="11" id="路径-8" stroke-linecap="round"></line>
                    <line x1="5.01818182" y1="17" x2="12.6181818" y2="17" id="路径-8备份" stroke-linecap="round"></line>
                    <line x1="5.01818182" y1="23" x2="7.64318182" y2="23" id="路径-8备份-2" stroke-linecap="round"></line>
                    <g id="编组" transform="translate(13.018182, 17.000000)" stroke-linejoin="round">
                        <path d="M0.0141414141,4.35897436 C3.03374926,3.48717949 5.36708259,2.03418803 7.01414141,0 C8.66120024,2.03418803 10.9945336,3.48717949 14.0141414,4.35897436 C14.0141414,9.58974359 13.6023767,14.3846154 7.01414141,17 C0.42590612,14.3846154 0.0141414141,9.58974359 0.0141414141,4.35897436 Z" id="路径-9"></path>
                        <polyline id="路径-10" stroke-linecap="round" points="5.45858586 9.15384615 6.81969697 10.8181818 9.34747475 7.72727273"></polyline>
                    </g>
                </g>
            </g>
        </g>
    </g>
</svg>