<?xml version="1.0" encoding="UTF-8"?>
<svg width="49px" height="46px" viewBox="0 0 49 46" version="1.1" xmlns="http://www.w3.org/2000/svg" xmlns:xlink="http://www.w3.org/1999/xlink">
    <!-- Generator: Sketch 59 (86127) - https://sketch.com -->
    <title>编组 17</title>
    <desc>Created with Sketch.</desc>
    <g id="页面-1" stroke="none" stroke-width="1" fill="none" fill-rule="evenodd">
        <g id="企业会员页" transform="translate(-791.000000, -206.000000)">
            <g id="编组-17" transform="translate(792.000000, 206.000000)">
                <circle id="椭圆形备份" fill="#FFF0B3" opacity="0.200000003" cx="25" cy="23" r="23"></circle>
                <g id="编组-5" transform="translate(0.000000, 10.000000)" stroke="#FFF0B3" stroke-width="2">
                    <circle id="椭圆形" cx="18" cy="6" r="6"></circle>
                    <path d="M31,25 C31,17.8202983 25.1797017,12 18,12 C10.8202983,12 5,17.8202983 5,25" id="路径" stroke-linecap="round"></path>
                    <line x1="27" y1="0.5" x2="38" y2="0.5" id="路径-3" stroke-linecap="round"></line>
                    <line x1="30" y1="8.5" x2="38.5909091" y2="8.5" id="路径-3备份" stroke-linecap="round"></line>
                    <line x1="33" y1="16.5" x2="38.5714286" y2="16.5" id="路径-3备份-2" stroke-linecap="round"></line>
                    <path d="M11,3 C7.80342103,3 5.21208178,5.65143187 5.21208178,8.92213883 C5.21208178,11.1374126 6.40084622,13.0685969 8.16127118,14.0842772 C7.92525412,14.1495009 7.69236722,14.2225247 7.46289094,14.3030615 C6.68722407,14.575289 5.95052526,14.9333571 5.26362609,15.366183 C2.10545453,17.3561962 0,20.9265186 0,25" id="路径" stroke-linecap="round" stroke-linejoin="round"></path>
                </g>
            </g>
        </g>
    </g>
</svg>