<?xml version="1.0" encoding="UTF-8"?>
<svg width="46px" height="46px" viewBox="0 0 46 46" version="1.1" xmlns="http://www.w3.org/2000/svg" xmlns:xlink="http://www.w3.org/1999/xlink">
    <!-- Generator: Sketch 59 (86127) - https://sketch.com -->
    <title>编组 19</title>
    <desc>Created with Sketch.</desc>
    <g id="页面-1" stroke="none" stroke-width="1" fill="none" fill-rule="evenodd">
        <g id="企业会员页" transform="translate(-1394.000000, -206.000000)">
            <g id="编组-19" transform="translate(1394.000000, 206.000000)">
                <circle id="椭圆形备份-3" fill="#FFF0B3" opacity="0.200000003" cx="23" cy="23" r="23"></circle>
                <g id="编组-7" transform="translate(1.000000, 5.000000)" stroke="#FFF0B3" stroke-width="2">
                    <path d="M23.9079294,10 C25.0124989,10 25.9079294,10.8954305 25.9079294,12 L25.9077466,15.918 L31.948959,15.9180768 C32.421268,15.9180768 32.8763207,16.0851397 33.2351439,16.3864927 L33.3650376,16.5057308 C34.1450548,17.2878095 34.1433836,18.5541384 33.3613049,19.3341555 L33.3613049,19.3341555 L18.4196988,34.2363765 C17.6390793,35.0149382 16.3756262,35.0149382 15.5950068,34.2363765 L15.5950068,34.2363765 L0.653400608,19.3341555 C0.277185563,18.9589321 0.065746587,18.4494245 0.065746587,17.9180768 C0.065746587,16.8135073 0.961177087,15.9180768 2.06574659,15.9180768 L2.06574659,15.9180768 L8.10674659,15.918 L8.10677612,12 C8.10677612,10.8954305 9.00220662,10 10.1067761,10 L23.9079294,10 Z" id="形状结合"></path>
                    <path d="M18.1065751,20.4994165 L21.5872848,20.5008662 L14.9073529,28.8507811 L14.9073529,22.5 L11.4267281,22.5 L18.1079868,14.1484266 L18.1065751,20.4994165 Z" id="形状结合" stroke-linejoin="round"></path>
                    <line x1="9.50735294" y1="5.5" x2="23.5073529" y2="5.5" id="路径-13" stroke-linecap="round"></line>
                    <line x1="10.5073529" y1="0.5" x2="22.5073529" y2="0.5" id="路径-14" stroke-linecap="round"></line>
                </g>
            </g>
        </g>
    </g>
</svg>