<?xml version="1.0" encoding="UTF-8"?>
<svg width="186px" height="66px" viewBox="0 0 186 66" version="1.1" xmlns="http://www.w3.org/2000/svg" xmlns:xlink="http://www.w3.org/1999/xlink">
    <title>编组 22</title>
    <desc>Created with Sketch.</desc>
    <g id="页面-1" stroke="none" stroke-width="1" fill="none" fill-rule="evenodd">
        <g id="企业会员页" transform="translate(-1020.000000, -473.000000)" fill="#000000">
            <g id="编组-22" transform="translate(1051.000000, 482.000000)">
                <!-- <path d="M14.1333333,2.144 C10.1293333,2.144 6.95733333,3.184 4.61733333,5.316 C2.48533333,7.188 1.44533333,9.528 1.44533333,12.336 C1.44533333,14.208 1.86133333,15.82 2.69333333,17.12 C3.57733333,18.472 4.92933333,19.564 6.80133333,20.292 L6.80133333,20.396 C5.13733333,20.8364706 3.74970704,21.7836263 2.55174897,23.2374671 L2.32933333,23.516 C0.873333333,25.284 0.197333333,27.312 0.197333333,29.6 C0.197333333,32.928 1.39333333,35.58 3.83733333,37.66 C6.22933333,39.688 9.66133333,40.728 14.1333333,40.728 C18.5533333,40.728 21.9853333,39.688 24.4293333,37.66 C26.8213333,35.58 28.0693333,32.928 28.0693333,29.6 C28.0693333,27.312 27.3413333,25.284 25.9373333,23.516 C24.6893333,21.904 23.1813333,20.864 21.4653333,20.396 L21.4653333,20.292 C23.2853333,19.564 24.6373333,18.472 25.5733333,17.12 C26.4053333,15.82 26.8213333,14.208 26.8213333,12.336 C26.8213333,9.528 25.7293333,7.188 23.6493333,5.316 C21.2573333,3.184 18.0853333,2.144 14.1333333,2.144 Z M14.1333333,6.98 C16.3173333,6.98 18.0333333,7.552 19.3853333,8.748 C20.5293333,9.788 21.1013333,11.036 21.1013333,12.544 C21.1013333,14.26 20.6333333,15.612 19.6973333,16.6 C18.5533333,17.796 16.6813333,18.42 14.1333333,18.42 C11.5333333,18.42 9.71333333,17.796 8.56933333,16.6 C7.63333333,15.612 7.16533333,14.26 7.16533333,12.544 C7.16533333,11.036 7.73733333,9.788 8.88133333,8.748 C10.1813333,7.552 11.9493333,6.98 14.1333333,6.98 Z M14.1333333,22.944 C16.7333333,22.944 18.7093333,23.568 20.1133333,24.868 C21.3613333,26.012 22.0373333,27.624 22.0373333,29.6 C22.0373333,31.472 21.3613333,32.928 20.0613333,34.072 C18.6053333,35.216 16.6293333,35.84 14.1333333,35.84 C11.5853333,35.84 9.66133333,35.268 8.30933333,34.124 C6.90533333,32.98 6.22933333,31.472 6.22933333,29.6 C6.22933333,27.624 6.85333333,26.012 8.20533333,24.816 C9.55733333,23.568 11.5333333,22.944 14.1333333,22.944 Z M46.3617778,2.144 C42.6177778,2.144 39.4977778,3.34 37.0017778,5.784 C34.5057778,8.176 33.2577778,11.244 33.2577778,14.988 C33.2577778,18.4931852 34.2221674,21.3715171 36.2438136,23.6229959 L36.4817778,23.88 C38.6657778,26.272 41.6297778,27.468 45.2697778,27.468 C47.1417778,27.468 48.8057778,27.104 50.2617778,26.428 C51.7697778,25.7 53.0697778,24.556 54.1617778,23.048 L54.4217778,23.048 L54.4217778,23.516 C54.4217778,26.948 53.6937778,29.808 52.2897778,32.096 C50.7817778,34.488 48.8057778,35.736 46.3617778,35.736 C42.7737778,35.736 40.6417778,34.02 39.9137778,30.588 L33.9857778,30.588 C34.8697778,37.348 38.9777778,40.728 46.3097778,40.728 C50.5737778,40.728 54.0057778,38.856 56.5537778,35.112 C59.0497778,31.368 60.3497778,26.428 60.3497778,20.396 C60.3497778,14.676 59.1537778,10.256 56.7617778,7.032 C54.3697778,3.756 50.8857778,2.144 46.3617778,2.144 Z M46.5697778,7.188 C48.6497778,7.188 50.4177778,7.864 51.7697778,9.216 C53.1217778,10.568 53.7977778,12.388 53.7977778,14.78 C53.7977778,17.172 53.1217778,19.044 51.8737778,20.448 C50.5737778,21.8 48.8057778,22.528 46.5697778,22.528 C44.3961778,22.528 42.6918778,21.87098 41.4568778,20.646107 L41.2657778,20.448 C39.9137778,19.096 39.2897778,17.276 39.2897778,14.988 C39.2897778,12.7 39.9137778,10.828 41.2657778,9.372 C42.6177778,7.916 44.3857778,7.188 46.5697778,7.188 Z M79.0062222,2.144 C75.2622222,2.144 72.1422222,3.34 69.6462222,5.784 C67.1502222,8.176 65.9022222,11.244 65.9022222,14.988 C65.9022222,18.4931852 66.8666118,21.3715171 68.8882581,23.6229959 L69.1262222,23.88 C71.3102222,26.272 74.2742222,27.468 77.9142222,27.468 C79.7862222,27.468 81.4502222,27.104 82.9062222,26.428 C84.4142222,25.7 85.7142222,24.556 86.8062222,23.048 L87.0662222,23.048 L87.0662222,23.516 C87.0662222,26.948 86.3382222,29.808 84.9342222,32.096 C83.4262222,34.488 81.4502222,35.736 79.0062222,35.736 C75.4182222,35.736 73.2862222,34.02 72.5582222,30.588 L66.6302222,30.588 C67.5142222,37.348 71.6222222,40.728 78.9542222,40.728 C83.2182222,40.728 86.6502222,38.856 89.1982222,35.112 C91.6942222,31.368 92.9942222,26.428 92.9942222,20.396 C92.9942222,14.676 91.7982222,10.256 89.4062222,7.032 C87.0142222,3.756 83.5302222,2.144 79.0062222,2.144 Z M79.2142222,7.188 C81.2942222,7.188 83.0622222,7.864 84.4142222,9.216 C85.7662222,10.568 86.4422222,12.388 86.4422222,14.78 C86.4422222,17.172 85.7662222,19.044 84.5182222,20.448 C83.2182222,21.8 81.4502222,22.528 79.2142222,22.528 C77.0406222,22.528 75.3363222,21.87098 74.1013222,20.646107 L73.9102222,20.448 C72.5582222,19.096 71.9342222,17.276 71.9342222,14.988 C71.9342222,12.7 72.5582222,10.828 73.9102222,9.372 C75.2622222,7.916 77.0302222,7.188 79.2142222,7.188 Z" id="899" fill-rule="nonzero"></path> -->
                <text id="899" font-family="PingFangSC-Semibold, PingFang SC" font-size="50" font-weight="500">
                    <tspan x="0" y="40">899</tspan>
                </text>
                <text id="1799" font-family="PingFangSC-Regular, PingFang SC" font-size="18" font-weight="normal" text-decoration="line-through">
                    <tspan x="99.668" y="19">1799</tspan>
                </text>
                <text id="元/年" font-family="PingFangSC-Light, PingFang SC" font-size="16" font-weight="300">
                    <tspan x="99" y="40">元/年</tspan>
                </text>
            </g>
        </g>
    </g>
</svg>