<?xml version="1.0" encoding="UTF-8"?>
<svg width="116px" height="26px" viewBox="0 0 116 26" version="1.1" xmlns="http://www.w3.org/2000/svg" xmlns:xlink="http://www.w3.org/1999/xlink">
    <!-- Generator: Sketch 57 (83077) - https://sketch.com -->
    <title>logo</title>
    <desc>Created with Sketch.</desc>
    <g id="页面-1" stroke="none" stroke-width="1" fill="none" fill-rule="evenodd">
        <g id="首页" transform="translate(-360.000000, -20.000000)" fill="#000000" fill-rule="nonzero">
            <g id="logo" transform="translate(360.000000, 20.000000)">
                <path d="M18.5886753,0 L17.7260315,2.03478261 L26.0524194,2.03478261 L26.0524194,22.0434783 C26.0524194,24.1606884 24.3980787,25.8889068 22.3169533,25.9948529 L22.1142629,26 L11.5375,26 L11.5375,8.74202899 L9.92473118,9.72173913 L9.92473118,4.86086957 C11.4718641,3.6951087 12.6563877,2.13192935 13.3855894,0.357621433 L13.5253313,0 L18.5886753,0 Z M6.98349574,0 L6.98349574,1.95942029 L8.68413978,1.95942029 L8.68413978,5.57681159 L6.98349574,5.57681159 L6.98349574,10.5130435 L8.68413978,9.98550725 L8.68413978,14.1681159 L6.98349574,14.8086957 L6.98349574,23.2869565 C7.01967966,23.9652174 6.80257616,24.6057971 6.36836918,25.0956522 C5.90400892,25.6137681 5.28762597,25.9419082 4.63070363,25.9930002 L4.45062164,26 L0.868413978,26 L0.868413978,22.7971014 L1.77301187,22.7971014 C2.13485103,22.7594203 2.46050627,22.6463768 2.78616151,22.457971 C2.89132102,22.2024457 2.92856501,20.2141389 2.86499691,16.4930508 L2.85852935,16.1275362 L-3.55271368e-15,17.0318841 L-3.55271368e-15,12.773913 L2.89471326,11.9826087 L2.89471326,5.61449275 L0.108551747,5.61449275 L0.108551747,2.03478261 L2.85852935,2.03478261 L2.85852935,0 L6.98349574,0 Z M97.2075488,18.5714286 L97.2075488,21.2300752 C97.2075488,21.9338346 97.6576238,22.324812 98.5202676,22.324812 L103.321068,22.324812 C103.808649,22.324812 104.146205,22.2075188 104.371243,21.9729323 C104.671293,21.7383459 104.821318,21.3864662 104.933837,20.1744361 L109.172043,21.1518797 C108.947006,23.2240602 108.309399,26 105.271393,26 L96.5699425,26 C94.2070486,26 93.0443548,24.3969925 93.0443548,22.324812 L93.044,19.263 L93.0443548,18.5714286 L97.2075488,18.5714286 Z M34.7365591,0 C34.3798891,2.74444444 33.9890382,4.45069444 33.5967631,5.15191454 L33.5455914,5.23768116 L33.5455914,26 L29.0422446,26 L29.0422446,11.5681159 L27.2930108,12.2086957 L27.2930108,6.7826087 C28.9501797,4.99771167 30.1063009,2.80698543 30.5715037,0.402664858 L30.6426075,0 L34.7365591,0 Z M53.3454301,16.0952381 L53.3454301,22.1481481 C53.3454301,24.2093474 51.7494155,25.8918458 49.7745597,25.994989 L49.5823029,26 L35.9771505,26 L35.9771505,16.0952381 L53.3454301,16.0952381 Z M68.2325269,0 C68.0690288,0.534280864 67.8463693,1.14560973 67.5727969,1.80664584 L74.4354839,8.65037594 L71.9827737,11.1428571 L70.713,9.877 L70.7137097,16.2477996 C70.7137097,17.5152336 69.7212366,18.5714286 68.4641039,18.5714286 L65.7513441,18.5714286 L65.7513441,16.1773866 L66.876147,16.1773866 C67.2400538,16.1773866 67.5377957,15.8605281 67.5377957,15.4732566 L67.537,12.38 L63.636,12.38 L63.6365685,20.8190476 C63.6365685,21.5719888 64.2013685,22.1562037 64.8931997,22.2223295 L65.0242998,22.2285714 L69.375025,22.2285714 C70.7712805,22.2285714 71.9966655,21.6731995 72.4966279,20.3967908 L72.5630564,20.2095238 L75.6760753,21.847619 C75.1684907,24.535873 73.9249084,25.9070053 72.0469662,25.9954272 L71.8504376,26 L63.261506,26 C61.6747031,26 60.2959599,24.9433643 59.8588209,23.405824 L59.8109309,23.2190476 L59.5483871,22.1142857 L59.548868,12.8395675 C58.7225136,13.3336088 57.8875655,13.6190476 57.0672043,13.6190476 L57.0672043,9.42290862 C60.0324211,7.91377091 62.704777,3.23912484 63.6199674,0 L65.759,0 L68.2325269,0 Z M84.3478361,1.23809524 L84.3478361,22.3275295 C84.4964595,24.7637228 83.3074724,26 80.7437189,26 L76.9166667,26 L76.9166667,22.3275295 C78.5886798,22.3275295 79.9634461,20.9821691 79.9634461,19.3095588 L79.9634461,1.23809524 L84.3478361,1.23809524 Z M89.4001176,18.5714286 L93.044,19.263 L92.8778462,19.7450222 C92.1900719,21.6530583 91.2431116,23.3253525 90.0979503,24.7619048 L86.8413978,23.0673051 C88.0819892,21.6839585 88.9348958,20.1622772 89.4001176,18.5714286 Z M111.574873,17.3333333 C113.220289,19.3273183 114.473939,21.0085213 115.375,22.4551378 L111.653226,24.7619048 C110.752165,23.1588972 109.498514,21.360401 107.931452,19.366416 L111.574873,17.3333333 Z M49.4375672,19.470194 L39.7402778,19.470194 L39.7402778,22.5516755 L47.0132448,22.5516755 C48.2984975,22.5516755 49.3503205,21.5036196 49.43241,20.218906 L49.4375672,20.0571429 L49.4375672,19.470194 Z M21.7016942,15.6753623 L15.7757064,15.6753623 L15.7757064,22.4202899 L19.5263316,22.4202899 C20.1264316,22.4202899 20.6890254,22.1942029 21.1015941,21.7797101 C21.4683219,21.4112721 21.6868769,20.9237431 21.7309172,20.396517 L21.7392004,20.1971014 L21.7392004,19.7449275 L21.7016942,19.7449275 L21.7016942,15.6753623 Z M101.993154,17.3333333 C103.349534,19.3142857 103.481864,19.3968254 104.209677,20.8412698 L101.331505,22.2857143 C100.570609,20.6761905 100.504444,20.9238095 99.2473118,18.9428571 L101.993154,17.3333333 Z M78.1572581,4.95238095 L78.1572581,18.5714286 L74.4354839,18.5714286 L74.4354839,8.65037594 L74.4354839,4.95238095 L78.1572581,4.95238095 Z M109.172043,8.66666667 L109.172043,13.9706667 C109.172043,15.7822796 107.579348,17.2367645 105.607336,17.3287171 L105.408916,17.3333333 L91.8037634,17.3333333 L91.8037634,8.66666667 L109.172043,8.66666667 Z M105.191812,13.52 L95.422155,13.52 L95.422155,14.9066667 L103.853007,14.9066667 C104.595984,14.9066667 105.118319,14.6650785 105.184661,14.1255317 L105.191812,14.0053333 L105.191812,13.52 Z M53.3454301,11.1428571 L53.3454301,14.8571429 L35.9771505,14.8571429 L35.9771505,11.1428571 L53.3454301,11.1428571 Z M105.191812,10.7466667 L95.422155,10.7466667 L95.422155,12.1333333 L105.191812,12.1333333 L105.191812,10.7466667 Z M21.5516692,5.61449275 L15.8132127,5.61449275 L15.8132127,11.9449275 L21.5516692,11.9449275 L21.5516692,5.61449275 Z M53.3454301,6.19047619 L53.3454301,9.9047619 L35.9771505,9.9047619 L35.9771505,6.19047619 L53.3454301,6.19047619 Z M69.499,8.666 L65.9632313,5.13912629 C65.3073518,6.33319974 64.5547069,7.54580932 63.7386564,8.66637813 L69.499,8.666 Z M103.471739,-8.8817842e-16 L103.471739,1.04 L111.653226,1.04 L111.653226,3.71428571 L107.931,3.714 L107.931,4.952 L114.134409,4.95238095 L114.134409,7.42857143 L86.8413978,7.42857143 L86.8413978,4.95238095 L93.044,4.952 L93.044,3.714 L90.563172,3.71428571 L90.563172,1.04 L98.2355882,1.04 L98.2355882,-8.8817842e-16 L103.471739,-8.8817842e-16 Z M102.969,3.714 L98.006,3.714 L98.006,4.952 L102.969,4.952 L102.969,3.714 Z M46.6152218,3.55271368e-15 L46.6152218,1.37142857 L53.3454301,1.37142857 L53.3454301,4.95238095 L35.9771505,4.95238095 L35.9771505,1.37142857 L42.2731519,1.37142857 L42.2731519,3.55271368e-15 L46.6152218,3.55271368e-15 Z" id="形状结合"></path>
            </g>
        </g>
    </g>
</svg>