<?xml version="1.0" encoding="UTF-8"?>
<svg width="46px" height="46px" viewBox="0 0 46 46" version="1.1" xmlns="http://www.w3.org/2000/svg" xmlns:xlink="http://www.w3.org/1999/xlink">
    <!-- Generator: Sketch 57 (83077) - https://sketch.com -->
    <title>音乐</title>
    <desc>Created with Sketch.</desc>
    <g id="页面-1" stroke="none" stroke-width="1" fill="none" fill-rule="evenodd">
        <g id="首页" transform="translate(-480.000000, -4405.000000)" fill="#FFFFFF" fill-rule="nonzero">
            <g id="音乐" transform="translate(480.000000, 4405.000000)">
                <path d="M12.6177462,5.91041016 L12.6177462,28.7727539 C11.4810861,28.2684375 10.194133,27.9923438 8.80197476,27.9923438 C6.3828146,27.9923438 4.04492398,29.0037598 2.3872482,30.7671973 C0.706193509,32.5556836 -0.134890475,34.8941309 0.0176290563,37.3511426 C0.291496244,41.7669727 3.82894742,45.3038672 8.24477749,45.578291 C8.43459195,45.5899805 8.62329312,45.5961035 8.81143765,45.5961035 C11.0597091,45.5961035 13.1782834,44.7594727 14.8287228,43.2086719 C16.5921603,41.5515527 17.6035763,39.2136621 17.6035763,36.794502 C17.6035763,36.0402539 17.5217502,35.3166211 17.3675607,34.6308398 L17.3675607,19.9689258 L40.3751877,15.7857715 L40.3751877,23.4818848 C39.1617111,22.8500977 37.7834689,22.4921777 36.3234005,22.4921777 C31.4700509,22.4921777 27.521799,26.4404297 27.521799,31.2937793 C27.521799,36.1471289 31.4700509,40.0953809 36.3234005,40.0953809 C41.079338,40.0953809 44.9658029,36.3035449 45.1199923,31.5843457 L45.1255587,31.5843457 L45.1255587,0 L12.6177462,5.91041016 Z M11.5762716,39.7474805 C10.7530002,40.5212109 9.67590054,40.9086328 8.53924038,40.8379395 C6.54368374,40.7138086 4.88266812,39.0533496 4.75853726,37.0572363 C4.6878439,35.9216895 5.07526578,34.8434766 5.84899624,34.0207617 C6.62328335,33.1969336 7.67199429,32.7427148 8.80197476,32.7427148 C11.7928048,32.7427148 12.8537619,34.9253027 12.8537619,36.794502 C12.8537619,37.9239258 12.4000998,38.9726367 11.5762716,39.7474805 Z M17.3675607,15.140625 L17.3675607,9.87480469 L40.3751877,5.69165039 L40.3751877,10.9574707 L17.3675607,15.140625 L17.3675607,15.140625 Z M36.3239572,35.3450098 C34.0901584,35.3450098 32.2721701,33.5275781 32.2721701,31.2932227 C32.2721701,29.0588672 34.0896017,27.2414355 36.3239572,27.2414355 C38.557756,27.2414355 40.3757443,29.0588672 40.3757443,31.2932227 C40.3757443,33.5275781 38.557756,35.3450098 36.3239572,35.3450098 Z" id="形状"></path>
            </g>
        </g>
    </g>
</svg>