<?xml version="1.0" encoding="UTF-8"?>
<svg width="644px" height="191px" viewBox="0 0 644 191" version="1.1" xmlns="http://www.w3.org/2000/svg" xmlns:xlink="http://www.w3.org/1999/xlink">
    <!-- Generator: Sketch 50.2 (55047) - http://www.bohemiancoding.com/sketch -->
    <title>Group 2</title>
    <desc>Created with Sketch.</desc>
    <defs></defs>
    <g id="Page-1" stroke="none" stroke-width="1" fill="none" fill-rule="evenodd">
        <g id="拍信创意-价格2" transform="translate(-649.000000, -114.000000)">
            <g id="Group-2" transform="translate(649.000000, 103.000000)">
                <text id="01-购买套餐" font-family="PingFangSC-Medium, PingFang SC" font-size="14" font-weight="400" fill="#FFFFFF">
                    <tspan x="0" y="200">01 购买套餐</tspan>
                </text>
                <text id="03-在购物车中结算" font-family="PingFangSC-Medium, PingFang SC" font-size="14" font-weight="400" fill="#FFFFFF">
                    <tspan x="525" y="200">03 在购物车中结算</tspan>
                </text>
                <text id="02-将图片加入购物车" font-family="PingFangSC-Medium, PingFang SC" font-size="14" font-weight="400" fill="#FFFFFF">
                    <tspan x="244" y="200">02 将图片加入购物车</tspan>
                </text>
                <text id="已购图片可无限次下载，已下载图片可永久使" font-family="PingFangSC-Regular, PingFang SC" font-size="14" font-weight="normal" fill="#FFFFFF">
                    <tspan x="164" y="89">已购图片可无限次下载，已下载图片可永久使用</tspan>
                </text>
                <text id="购买套餐更优惠" font-family="PingFangSC-Semibold, PingFang SC" font-size="48" font-weight="500" fill="#FFFFFF">
                    <tspan x="143" y="51">购买套餐更优惠</tspan>
                </text>
                <g id="购买" transform="translate(18.000000, 133.000000)" fill-rule="nonzero">
                    <rect id="Rectangle-path" fill="#000000" opacity="0" x="0" y="0" width="40" height="40"></rect>
                    <path d="M32.7587096,36.8136803 L7.24129039,36.8136803 C5.84687582,36.8136803 4.68974035,35.7682291 4.54899578,34.3810896 L2.56442133,14.8919433 C2.48643422,14.1316188 2.73622484,13.3703349 3.24839758,12.8029996 C3.76057031,12.235984 4.49279387,11.9108445 5.25671594,11.9108445 L34.7425645,11.9108445 C35.5071661,11.9108445 36.2393897,12.2363038 36.7515624,12.8033193 C37.2637352,13.3706547 37.5135258,14.1319785 37.4355387,14.8919433 L35.4510042,34.3810896 C35.3108992,35.7675496 34.1531242,36.8136803 32.7587096,36.8136803 Z M5.25675594,14.6176892 L7.24129039,34.1075151 L7.24196996,34.1075151 L7.24196996,34.1088342 L32.7587496,34.1068355 L34.7432841,14.6176892 L5.25675594,14.6176892 Z" id="Shape" fill="#FFFFFF"></path>
                    <path d="M26.4964754,17.6579479 C25.7490621,17.6579479 25.143033,17.0519588 25.143033,16.3045455 L25.143033,7.24656684 C25.143033,6.50015289 24.5357248,5.89312445 23.7895907,5.89312445 L16.2103294,5.89312445 C15.4642353,5.89312445 14.856927,6.50011293 14.856927,7.24656684 L14.856927,16.3045055 C14.856927,17.0519188 14.2509379,17.6579079 13.5034846,17.6579079 C12.7560714,17.6579079 12.1500823,17.0519188 12.1500822,16.3045055 L12.1500822,7.24656684 C12.1500822,5.00760484 13.9713674,3.18627973 16.2103694,3.18627969 L23.7896306,3.18627969 C26.0285926,3.18627969 27.8499177,5.00756484 27.8499178,7.24656684 L27.8499178,16.3045055 C27.8499178,17.0519188 27.2439286,17.6579479 26.4964754,17.6579479 Z" id="Shape" fill="#FFFFFF"></path>
                    <path d="M28.1208141,28.0166847 L11.8797055,28.0166847 L11.8797055,30.0468282 C11.8797055,30.7943214 12.4856547,31.4002306 13.2331479,31.4002306 L26.7673717,31.4002306 C27.5148649,31.4002306 28.1208141,30.7942814 28.1208141,30.0468282 L28.1208141,28.0166847 Z" id="Shape" fill="#FFFFFF"></path>
                </g>
                <g id="购物车" transform="translate(291.000000, 133.000000)" fill-rule="nonzero">
                    <rect id="Rectangle-path" fill="#000000" opacity="0" x="0" y="0" width="40" height="40"></rect>
                    <path d="M34.5820312,11.1523437 L33.8710937,12.640625 L33.9179687,12.5390625 L34.1054687,12.1484375 C34.4492187,11.4882812 34.0976562,11.1523437 33.5546875,11.1523437 L34.5820312,11.1523437 Z M30.3046875,20.1914062 L28.7109375,20.3007812 L29.34375,20.2578125 C30.0273437,20.1875 30.5976562,19.6523437 30.7890625,19.171875 L30.3046875,20.1914062 Z M7.90234375,5.765625 L8.09375,7.3984375 L8.09375,7.41796875 L8.01171875,6.7265625 C7.98046875,6.1875 7.421875,5.765625 6.875,5.765625 L7.90234375,5.765625 Z M13.71875,27.5039062 L13.5195312,25.90625 L13.5195312,25.8710937 L13.5976562,26.5351562 C13.6289062,27.0742187 14.1992187,27.5039062 14.7460937,27.5039062 L13.71875,27.5039062 Z" id="Shape" fill="#242424"></path>
                    <path d="M13.6445312,34.90625 C13.6445312,36.144576 14.6483928,37.1484375 15.8867188,37.1484375 C17.1250447,37.1484375 18.1289062,36.144576 18.1289062,34.90625 C18.1289062,33.667924 17.1250447,32.6640625 15.8867188,32.6640625 C14.6483928,32.6640625 13.6445312,33.667924 13.6445312,34.90625 Z" id="Shape" fill="#FFFFFF"></path>
                    <path d="M25.4414063,34.90625 C25.4414063,36.144576 26.4452678,37.1484375 27.6835938,37.1484375 C28.9219197,37.1484375 29.9257812,36.144576 29.9257812,34.90625 C29.9257812,33.667924 28.9219197,32.6640625 27.6835938,32.6640625 C26.4452678,32.6640625 25.4414063,33.667924 25.4414063,34.90625 Z" id="Shape" fill="#FFFFFF"></path>
                    <path d="M36.6523438,7.99609375 C36.5625,7.98046875 36.4726563,7.96875 36.3789063,7.9609375 L14.0078125,7.9609375 C13.125,7.9609375 12.40625,8.67578125 12.40625,9.5625 C12.40625,10.4453125 13.1210938,11.1640625 14.0078125,11.1640625 L34.5703125,11.1640625 L30.3046875,20.1875 L15.7773438,21.1835937 C14.8945313,21.2421875 14.2304688,22.0078125 14.2890625,22.890625 C14.3476562,23.7734375 15.1132813,24.4375 15.9960938,24.3789062 L31.4609375,23.3203125 C32.0507813,23.28125 32.5429688,22.921875 32.7890625,22.4296875 L32.8125,22.3828125 L38.09375,11.2070312 C38.5859375,9.95703125 38.140625,8.28125 36.6523438,7.99609375 Z" id="Shape" fill="#FFFFFF"></path>
                    <path d="M30.6914063,27.4921875 L13.71875,27.4921875 L10.9765625,4.5703125 C10.6914063,3.4453125 9.6875,2.60546875 8.48046875,2.5703125 L2.7578125,2.5703125 C1.875,2.5703125 1.15625,3.28515625 1.15625,4.171875 C1.15625,5.0546875 1.87109375,5.7734375 2.7578125,5.7734375 L7.89453125,5.7734375 L10.6132813,28.4609375 C10.8164063,29.7265625 11.9140625,30.6953125 13.2382813,30.6953125 L30.6875,30.6953125 C31.5703125,30.6953125 32.2890625,29.9804688 32.2890625,29.09375 C32.2890625,28.2070312 31.5742188,27.4921875 30.6914063,27.4921875 Z" id="Shape" fill="#FFFFFF"></path>
                </g>
                <g id="结算" transform="translate(562.000000, 131.000000)">
                    <rect id="Rectangle-path" fill="#000000" fill-rule="nonzero" opacity="0" x="0" y="0" width="46" height="46"></rect>
                    <path d="M23.0359375,40.5644531 C20.6730469,40.5644531 18.3820313,40.1017578 16.2257813,39.1898437 C14.1414063,38.309375 12.2726563,37.0470703 10.6644531,35.4388672 C9.05625,33.8306641 7.7984375,31.9619141 6.91347656,29.8775391 C6.0015625,27.7212891 5.53886719,25.4257812 5.53886719,23.0673828 C5.53886719,20.7089844 6.0015625,18.4134766 6.91347656,16.2572266 C7.79394531,14.1728516 9.05625,12.3041016 10.6644531,10.6958984 C12.2726563,9.08769531 14.1414063,7.82988281 16.2257813,6.94492187 C18.3820313,6.03300781 20.6775391,5.5703125 23.0359375,5.5703125 C25.3943359,5.5703125 27.6898438,6.03300781 29.8460938,6.94492187 C31.9304688,7.82539062 33.7992188,9.08769531 35.4074219,10.6958984 C37.015625,12.3041016 38.2734375,14.1728516 39.1583984,16.2572266 C40.0703125,18.4134766 40.5330078,20.7089844 40.5330078,23.0673828 C40.5330078,25.4302734 40.0703125,27.7212891 39.1583984,29.8775391 C38.2779297,31.9619141 37.015625,33.8306641 35.4074219,35.4388672 C33.7992188,37.0470703 31.9304688,38.3048828 29.8460938,39.1898437 C27.6898438,40.1017578 25.3988281,40.5644531 23.0359375,40.5644531 Z M23.0359375,8.265625 C14.8736328,8.265625 8.23417969,14.9050781 8.23417969,23.0673828 C8.23417969,31.2296875 14.8736328,37.8691406 23.0359375,37.8691406 C31.1982422,37.8691406 37.8376953,31.2296875 37.8376953,23.0673828 C37.8376953,14.9050781 31.1982422,8.265625 23.0359375,8.265625 Z" id="Combined-Shape" fill="#FFFFFF"></path>
                    <path d="M23.0943359,22.9955078 C22.7394531,22.9955078 22.3845703,22.85625 22.1195313,22.5777344 L16.4953125,16.6839844 C15.9832031,16.1449219 16.0011719,15.2914062 16.5402344,14.7792969 C17.0792969,14.2671875 17.9328125,14.2851562 18.4449219,14.8242188 L24.0646484,20.7179687 C24.5767578,21.2570312 24.5587891,22.1105469 24.0197266,22.6226562 C23.7636719,22.8697266 23.4267578,22.9955078 23.0943359,22.9955078 Z" id="Path" fill="#FFFFFF"></path>
                    <path d="M23.0224609,22.9550781 C22.6900391,22.9550781 22.353125,22.8292969 22.0925781,22.5822266 C21.5535156,22.0701172 21.5355469,21.2166016 22.0476563,20.6775391 L27.6673828,14.7837891 C28.1794922,14.2447266 29.0330078,14.2267578 29.5720703,14.7388672 C30.1111328,15.2509766 30.1291016,16.1044922 29.6169922,16.6435547 L23.9972656,22.5373047 C23.7322266,22.8158203 23.3773438,22.9550781 23.0224609,22.9550781 Z" id="Path" fill="#FFFFFF"></path>
                    <path d="M28.6601563,24.0736328 L17.5150391,24.0736328 C16.7693359,24.0736328 16.1673828,23.4716797 16.1673828,22.7259766 C16.1673828,21.9802734 16.7693359,21.3783203 17.5150391,21.3783203 L28.6601563,21.3783203 C29.4058594,21.3783203 30.0078125,21.9802734 30.0078125,22.7259766 C30.0078125,23.4671875 29.4058594,24.0736328 28.6601563,24.0736328 Z" id="Path" fill="#FFFFFF"></path>
                    <path d="M28.6152344,28.6556641 L17.4701172,28.6556641 C16.7244141,28.6556641 16.1224609,28.0537109 16.1224609,27.3080078 C16.1224609,26.5623047 16.7244141,25.9603516 17.4701172,25.9603516 L28.6152344,25.9603516 C29.3609375,25.9603516 29.9628906,26.5623047 29.9628906,27.3080078 C29.9628906,28.0537109 29.3609375,28.6556641 28.6152344,28.6556641 Z" id="Path" fill="#FFFFFF"></path>
                    <path d="M23.0449219,34.1091797 C22.2992187,34.1091797 21.6972656,33.5072266 21.6972656,32.7615234 L21.6972656,22.7259766 C21.6972656,21.9802734 22.2992187,21.3783203 23.0449219,21.3783203 C23.790625,21.3783203 24.3925781,21.9802734 24.3925781,22.7259766 L24.3925781,32.7660156 C24.3925781,33.5072266 23.790625,34.1091797 23.0449219,34.1091797 Z" id="Path" fill="#FFFFFF"></path>
                </g>
                <circle id="Oval-4" fill="#FFFFFF" cx="163" cy="169" r="2"></circle>
                <circle id="Oval-4-Copy-3" fill="#FFFFFF" cx="437" cy="169" r="2"></circle>
                <circle id="Oval-4-Copy" fill="#FFFFFF" cx="174" cy="169" r="3"></circle>
                <circle id="Oval-4-Copy-4" fill="#FFFFFF" cx="448" cy="169" r="3"></circle>
                <circle id="Oval-4-Copy-2" fill="#FFFFFF" cx="185" cy="169" r="2"></circle>
                <circle id="Oval-4-Copy-5" fill="#FFFFFF" cx="459" cy="169" r="2"></circle>
            </g>
        </g>
    </g>
</svg>